<?xml version="1.0" encoding="UTF-8" standalone="no"?>
<!DOCTYPE svg PUBLIC "-//W3C//DTD SVG 1.1//EN" "http://www.w3.org/Graphics/SVG/1.1/DTD/svg11.dtd">
<svg x="0px" y="0px" width="45px" height="45px" viewBox="0 0 45 45" version="1.1" xmlns="http://www.w3.org/2000/svg" xmlns:xlink="http://www.w3.org/1999/xlink" xml:space="preserve" style="fill-rule:evenodd;clip-rule:evenodd;stroke-linejoin:round;stroke-miterlimit:1.41421;">
    <path d="M15.467,26.811C15.512,26.797 15.558,26.784 15.603,26.773C15.738,26.74 15.875,26.717 16.012,26.701C16.234,26.674 16.457,26.663 16.68,26.666C16.919,26.669 17.157,26.688 17.391,26.732C17.347,27.212 16.952,27.596 16.458,27.613C15.978,27.63 15.562,27.267 15.467,26.811ZM30.311,23.095C33.544,23.353 36.414,23.528 37.921,23.648C38.68,23.696 39.038,23.582 39.285,22.87L40.716,17.856C40.939,17.873 41.162,17.889 41.386,17.899C41.837,17.921 42.289,17.926 42.741,17.918C42.966,17.914 43.191,17.906 43.416,17.895L43.021,25.138L42.26,25.638L41.667,25.611L41.012,25.198C33.766,25.067 26.554,25.166 19.344,25.675C19.34,25.681 19.333,25.689 19.325,25.697C19.309,25.697 19.294,25.697 19.279,25.696C19.232,25.693 19.185,25.69 19.137,25.687C19.068,25.682 18.999,25.678 18.93,25.675C18.698,25.664 18.466,25.659 18.233,25.658C18.197,25.658 18.16,25.658 18.124,25.658C17.506,25.662 16.887,25.694 16.273,25.76C16.02,25.787 15.768,25.82 15.517,25.859C15.291,25.895 15.066,25.937 14.844,25.987C14.713,26.017 14.583,26.05 14.455,26.088C14.344,26.12 14.233,26.156 14.125,26.199C14.044,26.231 13.963,26.266 13.886,26.308C13.819,26.344 13.755,26.384 13.698,26.434C13.696,26.436 13.694,26.438 13.692,26.439C10.738,26.548 8.098,26.58 5.853,26.428C5.691,26.509 5.492,26.631 5.289,26.73C5.195,26.925 4.995,27.06 4.764,27.06C4.508,27.06 4.29,26.894 4.212,26.663C4.054,26.531 3.898,26.361 3.726,26.208C2.226,25.989 0.972,25.643 0,25.122C0,25.082 0.006,24.927 0.006,24.882C0.994,24.19 2.072,23.589 3.229,23.085C3.229,23.085 3.387,23.015 3.458,22.985C4.009,22.755 4.568,22.545 5.135,22.357C6.373,21.947 7.644,21.64 8.932,21.434C9.806,21.293 10.688,21.2 11.572,21.151C12.013,21.127 12.455,21.115 12.896,21.113C12.956,21.113 13.015,21.112 13.075,21.113C13.216,21.113 13.486,21.12 13.596,21.124L13.528,21.297C13.466,21.296 13.404,21.295 13.342,21.294C12.9,21.289 12.458,21.294 12.017,21.311C11.192,21.342 10.368,21.413 9.55,21.524L9.789,23.296C9.849,23.562 10.038,23.665 10.317,23.653L10.748,23.608L12.954,23.381L13.328,23.199L13.335,23.699C13.336,23.707 13.335,23.709 13.339,23.716C13.343,23.727 13.352,23.736 13.359,23.745C13.376,23.767 13.395,23.787 13.415,23.806C13.455,23.843 13.5,23.876 13.547,23.905C13.61,23.943 13.676,23.976 13.743,24.005C13.833,24.044 13.926,24.077 14.019,24.106C14.13,24.14 14.242,24.169 14.355,24.195C14.649,24.264 14.947,24.312 15.247,24.352L15.253,24.353C16.479,24.335 17.704,24.305 18.929,24.253C19.677,24.222 20.424,24.182 21.171,24.133C21.29,24.125 21.409,24.117 21.528,24.109C21.538,24.107 21.541,24.107 21.549,24.102C21.569,24.089 21.576,24.062 21.564,24.042C21.559,24.033 21.557,24.032 21.549,24.026L21.539,24.021C21.477,24.002 21.421,23.971 21.367,23.936C21.332,23.912 21.298,23.888 21.266,23.861C21.15,23.767 21.046,23.66 20.945,23.55C20.918,23.52 20.892,23.49 20.866,23.46C20.839,23.428 20.811,23.396 20.785,23.364L19.407,21.867C22.503,22.401 26.56,22.795 30.183,23.085L30.183,21.611L29.983,21.611L29.983,21.45L30.511,21.45L30.511,21.611L30.311,21.611L30.311,23.095ZM13.784,26.48C13.816,26.454 13.851,26.432 13.886,26.411C13.972,26.36 14.065,26.319 14.158,26.282C14.287,26.232 14.419,26.19 14.552,26.153C14.725,26.105 14.899,26.065 15.075,26.03C15.339,25.976 15.606,25.934 15.873,25.898C16.168,25.859 16.463,25.829 16.759,25.805C17.445,25.751 18.134,25.734 18.821,25.76C18.89,25.763 18.96,25.766 19.029,25.77C19.093,25.774 19.157,25.778 19.221,25.782C18.941,25.988 18.247,26.38 17.478,26.659C17.203,26.598 16.921,26.578 16.641,26.576C16.6,26.576 16.6,26.576 16.559,26.576C16.311,26.58 16.062,26.597 15.817,26.638C15.728,26.653 15.638,26.671 15.55,26.694C15.467,26.716 15.384,26.742 15.305,26.777C15.301,26.779 15.297,26.78 15.293,26.782C14.906,26.761 14.109,26.606 13.784,26.48ZM43.507,17.891C43.68,17.882 43.854,17.872 44.028,17.861C44.319,17.841 44.61,17.818 44.902,17.794L45,24.578L43.113,25.098L43.507,17.891ZM18.942,21.494L17.775,21.494L16.31,20.745L17.312,20.745L17.112,20.655L16.123,20.655C16.113,20.656 16.104,20.658 16.095,20.665C16.077,20.679 16.073,20.706 16.086,20.726C16.09,20.732 16.096,20.736 16.103,20.74L17.744,21.579C17.751,21.582 17.751,21.582 17.757,21.583L17.764,21.584L19.025,21.584L20.717,23.424C20.803,23.526 20.89,23.626 20.983,23.722C21.069,23.81 21.159,23.894 21.258,23.969C21.274,23.98 21.289,23.991 21.306,24.002C21.32,24.012 21.335,24.022 21.35,24.031L21.344,24.032C20.603,24.081 19.861,24.123 19.118,24.155C17.831,24.212 16.543,24.244 15.255,24.263L15.211,24.257C14.968,24.223 14.725,24.184 14.485,24.133C14.298,24.093 14.112,24.046 13.932,23.982C13.815,23.941 13.7,23.894 13.594,23.828C13.531,23.789 13.469,23.743 13.424,23.683L13.399,21.871L13.887,20.63C13.936,20.522 14.094,20.407 14.251,20.405L16.437,20.353L18.916,21.465L18.942,21.494ZM9.245,21.567C7.87,21.771 6.511,22.09 5.191,22.527C4.798,22.658 4.409,22.798 4.023,22.949C3.908,22.995 3.713,23.075 3.578,23.131C3.699,23.313 4.407,24.021 4.407,24.021C4.544,24.144 4.739,24.26 4.918,24.236L8.722,23.803C9.027,23.763 9.207,23.604 9.218,23.427L9.245,21.567ZM40.741,17.768L40.742,17.763C40.742,17.763 40.381,17.66 40.442,17.555C40.704,17.104 44.9,17.699 44.9,17.699L44.9,17.704C44.249,17.758 43.598,17.805 42.945,17.823C42.548,17.834 42.152,17.835 41.755,17.823C41.508,17.816 41.262,17.804 41.016,17.788C40.939,17.783 40.862,17.777 40.786,17.771C40.771,17.77 40.756,17.769 40.741,17.768Z"/>
</svg>
