<?xml version="1.0" standalone="no"?>
<!-- Generator: Adobe Fireworks 10, Export SVG Extension by Aaron Beall (http://fireworks.abeall.com) . Version: 0.6.1  -->
<!DOCTYPE svg PUBLIC "-//W3C//DTD SVG 1.1//EN" "http://www.w3.org/Graphics/SVG/1.1/DTD/svg11.dtd">
<svg id="Untitled-Page%201" viewBox="0 0 45 45" style="background-color:#ffffff00" version="1.1"
	xmlns="http://www.w3.org/2000/svg" xmlns:xlink="http://www.w3.org/1999/xlink" xml:space="preserve"
	x="0px" y="0px" width="45px" height="45px"
>
	<g id="Layer%201">
		<path d="M 21.0845 3 L 21.0845 8.8442 L 18.7746 8.8442 L 16.4648 11.1818 L 18.4455 13.5195 L 15.8873 13.5195 L 13 15.8571 L 18.7746 25.7922 L 18.7746 43.4156 C 18.7746 43.4156 20.0739 44 22.0951 44 C 24.1162 44 25.7042 43.4156 25.7042 43.4156 L 25.7042 25.7922 L 31.4789 15.8571 L 28.5915 13.5195 L 26.0334 13.5195 L 28.0141 11.1818 L 25.1268 8.8442 L 23.8169 8.8442 L 23.8169 6.5065 L 23.2394 6.5065 L 23.2394 8.8442 L 21.662 8.8442 L 21.662 3 L 21.0845 3 Z" fill="#333333"/>
	</g>
</svg>