<?xml version="1.0" encoding="UTF-8" standalone="no"?><!DOCTYPE svg PUBLIC "-//W3C//DTD SVG 1.1//EN" "http://www.w3.org/Graphics/SVG/1.1/DTD/svg11.dtd"><svg width="45px" height="45px" viewBox="0 0 45 45" version="1.1" xmlns="http://www.w3.org/2000/svg" xmlns:xlink="http://www.w3.org/1999/xlink" xml:space="preserve" style="fill-rule:evenodd;clip-rule:evenodd;stroke-linejoin:round;stroke-miterlimit:1.41421;"><path d="M41.123,10.598c0.433,0.016 0.858,0.091 1.265,0.24c1.059,0.388 1.922,1.231 2.336,2.28c0.12,0.305 0.203,0.626 0.244,0.952c0.017,0.134 0.026,0.268 0.031,0.404c0.072,5.675 0.001,9.352 0.001,15.028c-0.002,0.136 -0.007,0.271 -0.021,0.407c-0.033,0.328 -0.107,0.651 -0.221,0.961c-0.399,1.09 -1.28,1.971 -2.37,2.37c-0.407,0.15 -0.832,0.224 -1.265,0.241c-12.38,0.157 -24.762,0.001 -37.143,0.001c-0.136,-0.002 -0.271,-0.007 -0.407,-0.021c-0.328,-0.033 -0.651,-0.107 -0.961,-0.221c-1.09,-0.399 -1.971,-1.28 -2.37,-2.37c-0.15,-0.408 -0.224,-0.832 -0.241,-1.265c-0.072,-5.676 -0.001,-9.353 -0.001,-15.029c0.002,-0.136 0.007,-0.271 0.021,-0.406c0.033,-0.328 0.107,-0.652 0.221,-0.962c0.399,-1.09 1.28,-1.971 2.37,-2.37c0.407,-0.149 0.832,-0.224 1.265,-0.24c12.414,-0.158 24.832,-0.158 37.246,0Zm-37.137,0.998c-0.352,0.005 -0.698,0.06 -1.03,0.181c-0.816,0.299 -1.476,0.959 -1.775,1.775c-0.112,0.305 -0.168,0.623 -0.18,0.947c-0.072,5.693 -0.072,9.387 0,15.08c0.013,0.349 0.077,0.69 0.206,1.015c0.309,0.785 0.956,1.417 1.749,1.707c0.305,0.112 0.623,0.168 0.947,0.18c12.397,0.157 24.797,0.157 37.194,0c0.349,-0.013 0.69,-0.077 1.015,-0.206c0.785,-0.309 1.417,-0.956 1.707,-1.749c0.112,-0.305 0.168,-0.623 0.18,-0.947c0.072,-5.693 0.072,-9.387 0,-15.08c-0.012,-0.324 -0.068,-0.642 -0.18,-0.947c-0.29,-0.792 -0.922,-1.439 -1.707,-1.749c-0.325,-0.128 -0.666,-0.192 -1.015,-0.206c-12.369,-0.156 -24.74,-0.001 -37.111,-0.001Zm18.628,18.702c0.075,0.016 0.146,0.034 0.216,0.068c0.183,0.09 0.325,0.254 0.386,0.449c0.023,0.074 0.03,0.147 0.034,0.224l0,0.75c-0.007,0.13 -0.031,0.25 -0.094,0.364c-0.037,0.067 -0.084,0.128 -0.139,0.18c-0.225,0.214 -0.569,0.266 -0.847,0.13c-0.069,-0.034 -0.132,-0.078 -0.187,-0.13c-0.11,-0.105 -0.187,-0.243 -0.218,-0.393c-0.013,-0.066 -0.012,-0.083 -0.015,-0.151l0,-0.75c0.005,-0.103 0.02,-0.2 0.061,-0.295c0.091,-0.212 0.278,-0.373 0.501,-0.431c0.075,-0.019 0.149,-0.023 0.226,-0.023c0.025,0.003 0.05,0.005 0.076,0.008Zm-6.117,-13.086c2.915,2.915 3.02,7.544 0.233,10.33c-2.786,2.786 -7.415,2.682 -10.33,-0.233c-2.914,-2.915 -3.019,-7.544 -0.233,-10.33c2.787,-2.786 7.415,-2.682 10.33,0.233Zm6.117,9.336c0.075,0.016 0.146,0.034 0.216,0.068c0.183,0.09 0.325,0.254 0.386,0.449c0.023,0.074 0.03,0.147 0.034,0.224l0,0.75c-0.007,0.13 -0.031,0.25 -0.094,0.364c-0.037,0.067 -0.084,0.128 -0.139,0.18c-0.225,0.214 -0.569,0.266 -0.847,0.13c-0.069,-0.034 -0.132,-0.078 -0.187,-0.13c-0.11,-0.105 -0.187,-0.243 -0.218,-0.393c-0.013,-0.066 -0.012,-0.083 -0.015,-0.151l0,-0.75c0.004,-0.077 0.011,-0.15 0.034,-0.224c0.069,-0.22 0.24,-0.399 0.456,-0.479c0.097,-0.036 0.195,-0.046 0.298,-0.046c0.025,0.003 0.05,0.005 0.076,0.008Zm3.968,-10.839c-0.276,0 -0.5,0.224 -0.5,0.5c0,1.653 0,10.929 0,12.582c0,0.276 0.224,0.5 0.5,0.5c0.282,0 0.633,0 0.915,0c0.276,0 0.5,-0.224 0.5,-0.5c0,-1.653 0,-10.929 0,-12.582c0,-0.276 -0.224,-0.5 -0.5,-0.5c-0.282,0 -0.633,0 -0.915,0Zm-12.719,10.788c0.105,-0.112 0.154,-0.265 0.131,-0.416c-0.148,-1.008 -0.714,-4.848 -0.714,-4.848c0.357,-0.314 1.119,-1.048 1.245,-1.199c1.059,-1.271 -0.177,-1.503 -0.704,-0.991c-0.144,0.141 -0.904,0.85 -1.397,1.339c0,0 -3.849,-0.499 -4.86,-0.63c-0.152,-0.02 -0.304,0.031 -0.414,0.138c-0.208,0.204 -0.529,0.518 -0.529,0.518l4.332,1.615l-2.053,2.268c0,0 -0.808,-0.134 -1.23,-0.204c-0.157,-0.026 -0.317,0.025 -0.431,0.136c-0.128,0.126 -0.279,0.272 -0.279,0.272l1.45,0.826l-0.004,0.004l0.856,1.443c0,0 0.144,-0.153 0.267,-0.284c0.109,-0.116 0.157,-0.276 0.128,-0.433c-0.077,-0.421 -0.225,-1.227 -0.225,-1.227l2.233,-2.092l1.691,4.302c0,0 0.308,-0.326 0.507,-0.537Zm8.751,-3.699c0.075,0.016 0.146,0.034 0.216,0.068c0.183,0.09 0.325,0.254 0.386,0.449c0.023,0.074 0.03,0.147 0.034,0.224l0,0.75c-0.007,0.13 -0.031,0.25 -0.094,0.364c-0.151,0.272 -0.463,0.425 -0.77,0.378c-0.075,-0.012 -0.148,-0.035 -0.216,-0.068c-0.069,-0.034 -0.132,-0.078 -0.187,-0.13c-0.11,-0.105 -0.187,-0.243 -0.218,-0.393c-0.013,-0.066 -0.012,-0.083 -0.015,-0.151l0,-0.75c0.005,-0.103 0.02,-0.2 0.061,-0.295c0.091,-0.212 0.278,-0.373 0.501,-0.431c0.075,-0.019 0.149,-0.023 0.226,-0.023c0.025,0.003 0.05,0.005 0.076,0.008Zm10.655,0.634c0,0 0,0.577 0,1.109c0,0.168 -0.094,0.323 -0.244,0.401c-0.15,0.078 -0.331,0.065 -0.469,-0.032c-0.824,-0.581 -2.161,-1.523 -2.896,-2.04c-0.12,-0.085 -0.192,-0.223 -0.192,-0.37c0,-0.147 0.072,-0.285 0.192,-0.37c0.714,-0.503 1.998,-1.407 2.826,-1.991c0.152,-0.107 0.35,-0.12 0.515,-0.035c0.164,0.086 0.268,0.256 0.268,0.441c0,0.506 0,1.023 0,1.023c0,0 2.768,0 3.926,0c0.133,0 0.26,0.053 0.354,0.147c0.094,0.093 0.146,0.22 0.146,0.353c0,0.272 0,0.608 0,0.878c0,0.268 -0.217,0.486 -0.486,0.486c-1.15,0 -3.94,0 -3.94,0Zm-10.655,-4.384c0.075,0.016 0.146,0.034 0.216,0.068c0.183,0.09 0.325,0.254 0.386,0.449c0.023,0.074 0.03,0.147 0.034,0.224l0,0.75c-0.007,0.13 -0.031,0.25 -0.094,0.364c-0.037,0.067 -0.084,0.128 -0.139,0.18c-0.225,0.214 -0.569,0.266 -0.847,0.13c-0.069,-0.034 -0.132,-0.078 -0.187,-0.13c-0.11,-0.105 -0.187,-0.243 -0.218,-0.393c-0.013,-0.066 -0.012,-0.083 -0.015,-0.151l0,-0.75c0.004,-0.077 0.011,-0.15 0.034,-0.224c0.069,-0.22 0.24,-0.399 0.456,-0.479c0.097,-0.036 0.195,-0.046 0.298,-0.046c0.025,0.003 0.05,0.005 0.076,0.008Zm-0.076,-3.758c0.077,0.008 0.149,0.019 0.222,0.046c0.216,0.08 0.387,0.259 0.456,0.479c0.023,0.074 0.03,0.147 0.034,0.224l0,0.75c-0.007,0.13 -0.031,0.25 -0.094,0.364c-0.151,0.272 -0.463,0.425 -0.77,0.378c-0.075,-0.012 -0.148,-0.035 -0.216,-0.068c-0.069,-0.034 -0.132,-0.078 -0.187,-0.13c-0.11,-0.105 -0.187,-0.243 -0.218,-0.393c-0.013,-0.066 -0.012,-0.083 -0.015,-0.151l0,-0.75c0.004,-0.077 0.011,-0.15 0.034,-0.224c0.069,-0.22 0.24,-0.399 0.456,-0.479c0.073,-0.027 0.145,-0.038 0.222,-0.046c0.025,0 0.051,0 0.076,0Zm0.076,-3.742c0.075,0.016 0.146,0.034 0.216,0.068c0.183,0.09 0.325,0.254 0.386,0.449c0.023,0.074 0.03,0.147 0.034,0.224l0,0.75c-0.007,0.13 -0.031,0.25 -0.094,0.364c-0.037,0.067 -0.084,0.128 -0.139,0.18c-0.055,0.052 -0.118,0.096 -0.187,0.13c-0.278,0.136 -0.622,0.084 -0.847,-0.13c-0.11,-0.105 -0.187,-0.243 -0.218,-0.393c-0.013,-0.066 -0.012,-0.083 -0.015,-0.151l0,-0.75c0.005,-0.103 0.02,-0.2 0.061,-0.295c0.091,-0.212 0.278,-0.373 0.501,-0.431c0.075,-0.019 0.149,-0.023 0.226,-0.023c0.025,0.003 0.05,0.005 0.076,0.008Z"/></svg>