<?xml version="1.0" encoding="UTF-8" standalone="no"?><!DOCTYPE svg PUBLIC "-//W3C//DTD SVG 1.1//EN" "http://www.w3.org/Graphics/SVG/1.1/DTD/svg11.dtd"><svg width="45px" height="45px" viewBox="0 0 45 45" version="1.1" xmlns="http://www.w3.org/2000/svg" xmlns:xlink="http://www.w3.org/1999/xlink" xml:space="preserve" style="fill-rule:evenodd;clip-rule:evenodd;stroke-linejoin:round;stroke-miterlimit:1.41421;"><path d="M41.163,10.481l0.1,0.004l0.101,0.006l0.099,0.009l0.099,0.011l0.098,0.014l0.098,0.016l0.096,0.019l0.096,0.02l0.095,0.024l0.094,0.025l0.093,0.028l0.092,0.03l0.091,0.032l0.09,0.034l0.089,0.036l0.087,0.039l0.087,0.04l0.086,0.043l0.084,0.044l0.083,0.047l0.082,0.048l0.08,0.05l0.08,0.053l0.078,0.054l0.076,0.055l0.075,0.058l0.074,0.059l0.072,0.062l0.071,0.062l0.069,0.065l0.068,0.066l0.066,0.067l0.064,0.07l0.063,0.07l0.061,0.073l0.059,0.073l0.058,0.075l0.056,0.077l0.054,0.078l0.052,0.079l0.05,0.081l0.049,0.082l0.046,0.083l0.045,0.084l0.042,0.085l0.041,0.087l0.038,0.088l0.037,0.089l0.034,0.09l0.032,0.091l0.03,0.092l0.027,0.093l0.026,0.094l0.023,0.094l0.021,0.096l0.018,0.097l0.017,0.097l0.013,0.098l0.012,0.099l0.009,0.1l0.006,0.1l0.004,0.101l0.001,0.102l0,15.193l-0.001,0.102l-0.004,0.101l-0.006,0.1l-0.009,0.099l-0.012,0.099l-0.013,0.098l-0.017,0.098l-0.018,0.096l-0.021,0.096l-0.023,0.095l-0.026,0.094l-0.027,0.093l-0.03,0.092l-0.032,0.091l-0.034,0.09l-0.037,0.089l-0.038,0.087l-0.041,0.087l-0.042,0.086l-0.045,0.084l-0.046,0.083l-0.049,0.082l-0.05,0.08l-0.052,0.08l-0.054,0.078l-0.056,0.076l-0.058,0.075l-0.059,0.074l-0.061,0.072l-0.063,0.071l-0.064,0.069l-0.066,0.068l-0.068,0.066l-0.069,0.064l-0.071,0.063l-0.072,0.061l-0.074,0.059l-0.075,0.058l-0.076,0.056l-0.078,0.054l-0.08,0.052l-0.08,0.05l-0.082,0.049l-0.083,0.046l-0.084,0.045l-0.086,0.042l-0.087,0.041l-0.087,0.038l-0.089,0.037l-0.09,0.034l-0.091,0.032l-0.092,0.03l-0.093,0.027l-0.094,0.026l-0.095,0.023l-0.096,0.021l-0.096,0.018l-0.098,0.017l-0.098,0.013l-0.099,0.012l-0.099,0.009l-0.101,0.006l-0.1,0.004l-0.102,0.001l-37.153,0l-0.102,-0.001l-0.101,-0.004l-0.1,-0.006l-0.1,-0.009l-0.099,-0.012l-0.098,-0.013l-0.097,-0.017l-0.097,-0.018l-0.095,-0.021l-0.095,-0.023l-0.094,-0.026l-0.093,-0.027l-0.092,-0.03l-0.091,-0.032l-0.09,-0.034l-0.089,-0.037l-0.088,-0.038l-0.086,-0.041l-0.086,-0.042l-0.084,-0.045l-0.083,-0.046l-0.082,-0.049l-0.081,-0.05l-0.079,-0.052l-0.078,-0.054l-0.076,-0.056l-0.075,-0.058l-0.074,-0.059l-0.072,-0.061l-0.071,-0.063l-0.069,-0.064l-0.068,-0.066l-0.066,-0.068l-0.064,-0.069l-0.063,-0.071l-0.061,-0.072l-0.06,-0.074l-0.057,-0.075l-0.056,-0.076l-0.054,-0.078l-0.052,-0.08l-0.051,-0.08l-0.048,-0.082l-0.047,-0.083l-0.044,-0.084l-0.043,-0.086l-0.04,-0.087l-0.039,-0.087l-0.036,-0.089l-0.034,-0.09l-0.032,-0.091l-0.03,-0.092l-0.028,-0.093l-0.025,-0.094l-0.023,-0.095l-0.021,-0.096l-0.019,-0.096l-0.016,-0.098l-0.014,-0.098l-0.011,-0.099l-0.009,-0.099l-0.006,-0.1l-0.004,-0.101l-0.001,-0.102l0,-15.193l0.001,-0.102l0.004,-0.101l0.006,-0.1l0.009,-0.1l0.011,-0.099l0.014,-0.098l0.016,-0.097l0.019,-0.097l0.021,-0.096l0.023,-0.094l0.025,-0.094l0.028,-0.093l0.03,-0.092l0.032,-0.091l0.034,-0.09l0.036,-0.089l0.039,-0.088l0.04,-0.087l0.043,-0.085l0.044,-0.084l0.047,-0.083l0.048,-0.082l0.051,-0.081l0.052,-0.079l0.054,-0.078l0.056,-0.077l0.057,-0.075l0.06,-0.073l0.061,-0.073l0.063,-0.07l0.064,-0.07l0.066,-0.067l0.068,-0.066l0.069,-0.065l0.071,-0.062l0.072,-0.062l0.074,-0.059l0.075,-0.058l0.076,-0.055l0.078,-0.054l0.079,-0.053l0.081,-0.05l0.082,-0.048l0.083,-0.047l0.084,-0.044l0.086,-0.043l0.086,-0.04l0.088,-0.039l0.089,-0.036l0.09,-0.034l0.091,-0.032l0.092,-0.03l0.093,-0.028l0.094,-0.025l0.095,-0.024l0.095,-0.02l0.097,-0.019l0.097,-0.016l0.098,-0.014l0.099,-0.011l0.1,-0.009l0.1,-0.006l0.101,-0.004l0.102,-0.001l37.153,0l0.102,0.001Zm-37.243,1.863l-0.067,0.001l-0.053,0.002l-0.053,0.003l-0.053,0.005l-0.052,0.006l-0.052,0.007l-0.051,0.008l-0.05,0.01l-0.051,0.011l-0.049,0.012l-0.049,0.013l-0.049,0.015l-0.048,0.015l-0.048,0.017l-0.047,0.018l-0.046,0.019l-0.046,0.02l-0.046,0.022l-0.045,0.022l-0.044,0.023l-0.044,0.025l-0.043,0.025l-0.042,0.027l-0.042,0.027l-0.041,0.029l-0.041,0.029l-0.039,0.031l-0.039,0.031l-0.039,0.033l-0.037,0.033l-0.037,0.034l-0.036,0.035l-0.035,0.036l-0.034,0.037l-0.033,0.037l-0.032,0.038l-0.032,0.039l-0.03,0.04l-0.03,0.041l-0.028,0.041l-0.028,0.042l-0.027,0.042l-0.025,0.043l-0.025,0.044l-0.023,0.044l-0.022,0.045l-0.021,0.046l-0.021,0.046l-0.019,0.046l-0.018,0.047l-0.016,0.048l-0.016,0.048l-0.014,0.049l-0.014,0.049l-0.012,0.049l-0.011,0.05l-0.009,0.051l-0.009,0.051l-0.007,0.052l-0.006,0.052l-0.005,0.052l-0.003,0.054l-0.002,0.053l-0.001,0.066l0,15.17l0.001,0.066l0.002,0.054l0.003,0.053l0.005,0.053l0.006,0.052l0.007,0.052l0.009,0.051l0.009,0.05l0.011,0.05l0.012,0.05l0.014,0.049l0.014,0.049l0.016,0.048l0.016,0.047l0.018,0.047l0.019,0.047l0.021,0.046l0.021,0.045l0.022,0.045l0.023,0.045l0.025,0.043l0.025,0.043l0.027,0.043l0.028,0.042l0.028,0.041l0.03,0.04l0.03,0.04l0.032,0.039l0.032,0.038l0.033,0.038l0.034,0.037l0.035,0.035l0.036,0.035l0.037,0.035l0.037,0.033l0.039,0.032l0.039,0.032l0.039,0.03l0.041,0.03l0.041,0.028l0.042,0.028l0.042,0.026l0.043,0.026l0.044,0.024l0.044,0.024l0.045,0.022l0.046,0.021l0.046,0.02l0.046,0.019l0.047,0.018l0.048,0.017l0.048,0.016l0.049,0.014l0.049,0.014l0.049,0.012l0.051,0.011l0.05,0.009l0.051,0.009l0.052,0.007l0.052,0.006l0.053,0.005l0.053,0.003l0.053,0.002l0.067,0.001l37.129,0l0.066,-0.001l0.054,-0.002l0.053,-0.003l0.053,-0.005l0.052,-0.006l0.052,-0.007l0.051,-0.009l0.05,-0.009l0.05,-0.011l0.05,-0.012l0.049,-0.014l0.049,-0.014l0.048,-0.016l0.047,-0.017l0.047,-0.018l0.047,-0.019l0.046,-0.02l0.045,-0.021l0.045,-0.022l0.045,-0.024l0.043,-0.024l0.043,-0.026l0.043,-0.026l0.042,-0.028l0.041,-0.028l0.04,-0.03l0.04,-0.03l0.039,-0.032l0.038,-0.032l0.038,-0.033l0.037,-0.035l0.035,-0.035l0.035,-0.035l0.035,-0.037l0.033,-0.038l0.032,-0.038l0.032,-0.039l0.03,-0.04l0.03,-0.04l0.028,-0.041l0.028,-0.042l0.026,-0.043l0.026,-0.043l0.024,-0.043l0.024,-0.045l0.022,-0.045l0.021,-0.045l0.02,-0.046l0.019,-0.047l0.018,-0.047l0.017,-0.047l0.016,-0.048l0.014,-0.049l0.013,-0.049l0.013,-0.05l0.01,-0.05l0.01,-0.05l0.009,-0.051l0.007,-0.052l0.006,-0.052l0.005,-0.053l0.003,-0.053l0.002,-0.054l0.001,-0.066l0,-15.17l-0.001,-0.066l-0.002,-0.053l-0.003,-0.054l-0.005,-0.052l-0.006,-0.052l-0.007,-0.052l-0.009,-0.051l-0.01,-0.051l-0.01,-0.05l-0.013,-0.049l-0.013,-0.05l-0.014,-0.048l-0.016,-0.048l-0.017,-0.048l-0.018,-0.047l-0.019,-0.046l-0.02,-0.046l-0.021,-0.046l-0.022,-0.045l-0.024,-0.044l-0.024,-0.044l-0.026,-0.043l-0.026,-0.042l-0.028,-0.042l-0.028,-0.041l-0.03,-0.041l-0.03,-0.04l-0.032,-0.039l-0.032,-0.038l-0.033,-0.037l-0.035,-0.037l-0.035,-0.036l-0.035,-0.035l-0.037,-0.034l-0.038,-0.033l-0.038,-0.033l-0.039,-0.031l-0.04,-0.031l-0.04,-0.029l-0.041,-0.029l-0.042,-0.027l-0.043,-0.027l-0.043,-0.025l-0.043,-0.025l-0.045,-0.023l-0.045,-0.022l-0.045,-0.022l-0.046,-0.02l-0.047,-0.019l-0.047,-0.018l-0.047,-0.017l-0.048,-0.015l-0.049,-0.015l-0.049,-0.013l-0.05,-0.012l-0.05,-0.011l-0.05,-0.01l-0.051,-0.008l-0.052,-0.007l-0.052,-0.006l-0.053,-0.005l-0.053,-0.003l-0.054,-0.002l-0.066,-0.001l-37.129,0Z"/><path d="M22.614,30.298c0.075,0.016 0.146,0.034 0.216,0.068c0.183,0.09 0.325,0.254 0.386,0.449c0.023,0.074 0.03,0.147 0.034,0.224l0,0.75c-0.007,0.13 -0.031,0.25 -0.094,0.364c-0.037,0.067 -0.084,0.128 -0.139,0.18c-0.225,0.214 -0.569,0.266 -0.847,0.13c-0.069,-0.034 -0.132,-0.078 -0.187,-0.13c-0.11,-0.105 -0.187,-0.243 -0.218,-0.393c-0.013,-0.066 -0.012,-0.083 -0.015,-0.151l0,-0.75c0.005,-0.103 0.02,-0.2 0.061,-0.295c0.091,-0.212 0.278,-0.373 0.501,-0.431c0.075,-0.019 0.149,-0.023 0.226,-0.023c0.025,0.003 0.05,0.005 0.076,0.008l0,0Zm-6.117,-13.086c2.915,2.915 3.02,7.544 0.233,10.33c-2.786,2.786 -7.415,2.682 -10.33,-0.233c-2.914,-2.915 -3.019,-7.544 -0.233,-10.33c2.787,-2.786 7.415,-2.682 10.33,0.233l0,0Zm11,12.079l-0.915,0c-0.276,0 -0.5,-0.224 -0.5,-0.5c0,-1.653 0,-10.929 0,-12.582c0,-0.276 0.224,-0.5 0.5,-0.5c0.282,0 0.633,0 0.915,0c0.276,0 0.5,0.224 0.5,0.5c0,1.653 0,10.929 0,12.582c0,0.276 -0.224,0.5 -0.5,0.5Zm-4.883,-2.743c0.075,0.016 0.146,0.034 0.216,0.068c0.183,0.09 0.325,0.254 0.386,0.449c0.023,0.074 0.03,0.147 0.034,0.224l0,0.75c-0.007,0.13 -0.031,0.25 -0.094,0.364c-0.037,0.067 -0.084,0.128 -0.139,0.18c-0.225,0.214 -0.569,0.266 -0.847,0.13c-0.069,-0.034 -0.132,-0.078 -0.187,-0.13c-0.11,-0.105 -0.187,-0.243 -0.218,-0.393c-0.013,-0.066 -0.012,-0.083 -0.015,-0.151l0,-0.75c0.004,-0.077 0.011,-0.15 0.034,-0.224c0.069,-0.22 0.24,-0.399 0.456,-0.479c0.097,-0.036 0.195,-0.046 0.298,-0.046c0.025,0.003 0.05,0.005 0.076,0.008l0,0Zm-8.751,-0.051c0.105,-0.112 0.154,-0.265 0.131,-0.416c-0.148,-1.008 -0.714,-4.848 -0.714,-4.848c0.357,-0.314 1.119,-1.048 1.245,-1.199c1.059,-1.271 -0.177,-1.503 -0.704,-0.991c-0.144,0.141 -0.904,0.85 -1.397,1.339c0,0 -3.849,-0.499 -4.86,-0.63c-0.152,-0.02 -0.304,0.031 -0.414,0.138c-0.208,0.204 -0.529,0.518 -0.529,0.518l4.332,1.615l-2.053,2.268c0,0 -0.808,-0.134 -1.23,-0.204c-0.157,-0.026 -0.317,0.025 -0.431,0.136c-0.128,0.126 -0.279,0.272 -0.279,0.272l1.45,0.826l-0.004,0.004l0.856,1.443c0,0 0.144,-0.153 0.267,-0.284c0.109,-0.116 0.157,-0.276 0.128,-0.433c-0.077,-0.421 -0.225,-1.227 -0.225,-1.227l2.233,-2.092l1.691,4.302c0,0 0.308,-0.326 0.507,-0.537l0,0Zm8.751,-3.699c0.075,0.016 0.146,0.034 0.216,0.068c0.183,0.09 0.325,0.254 0.386,0.449c0.023,0.074 0.03,0.147 0.034,0.224l0,0.75c-0.007,0.13 -0.031,0.25 -0.094,0.364c-0.151,0.272 -0.463,0.425 -0.77,0.378c-0.075,-0.012 -0.148,-0.035 -0.216,-0.068c-0.069,-0.034 -0.132,-0.078 -0.187,-0.13c-0.11,-0.105 -0.187,-0.243 -0.218,-0.393c-0.013,-0.066 -0.012,-0.083 -0.015,-0.151l0,-0.75c0.005,-0.103 0.02,-0.2 0.061,-0.295c0.091,-0.212 0.278,-0.373 0.501,-0.431c0.075,-0.019 0.149,-0.023 0.226,-0.023c0.025,0.003 0.05,0.005 0.076,0.008Zm10.162,-2.75c0.077,0.001 0.154,0.019 0.225,0.056c0.164,0.086 0.268,0.256 0.268,0.441c0,0.506 0,1.023 0,1.023c0,0 2.768,0 3.926,0c0.133,0 0.26,0.053 0.354,0.147c0.094,0.093 0.146,0.22 0.146,0.353c0,0.272 0,0.608 0,0.878c0,0.268 -0.217,0.486 -0.486,0.486l-3.94,0c0,0 0,0.577 0,1.109c0,0.168 -0.094,0.323 -0.244,0.401c-0.15,0.078 -0.331,0.065 -0.469,-0.032c-0.824,-0.581 -2.161,-1.523 -2.896,-2.04c-0.12,-0.085 -0.192,-0.223 -0.192,-0.37c0,-0.147 0.072,-0.285 0.192,-0.37c0.714,-0.503 1.998,-1.407 2.826,-1.991c0.086,-0.06 0.186,-0.091 0.286,-0.091l0.004,0Zm-10.162,-1c0.075,0.016 0.146,0.034 0.216,0.068c0.183,0.09 0.325,0.254 0.386,0.449c0.023,0.074 0.03,0.147 0.034,0.224l0,0.75c-0.007,0.13 -0.031,0.25 -0.094,0.364c-0.037,0.067 -0.084,0.128 -0.139,0.18c-0.225,0.214 -0.569,0.266 -0.847,0.13c-0.069,-0.034 -0.132,-0.078 -0.187,-0.13c-0.11,-0.105 -0.187,-0.243 -0.218,-0.393c-0.013,-0.066 -0.012,-0.083 -0.015,-0.151l0,-0.75c0.004,-0.077 0.011,-0.15 0.034,-0.224c0.069,-0.22 0.24,-0.399 0.456,-0.479c0.097,-0.036 0.195,-0.046 0.298,-0.046c0.025,0.003 0.05,0.005 0.076,0.008l0,0Zm-0.076,-3.758c0.077,0.008 0.149,0.019 0.222,0.046c0.216,0.08 0.387,0.259 0.456,0.479c0.023,0.074 0.03,0.147 0.034,0.224l0,0.75c-0.007,0.13 -0.031,0.25 -0.094,0.364c-0.151,0.272 -0.463,0.425 -0.77,0.378c-0.075,-0.012 -0.148,-0.035 -0.216,-0.068c-0.069,-0.034 -0.132,-0.078 -0.187,-0.13c-0.11,-0.105 -0.187,-0.243 -0.218,-0.393c-0.013,-0.066 -0.012,-0.083 -0.015,-0.151l0,-0.75c0.004,-0.077 0.011,-0.15 0.034,-0.224c0.069,-0.22 0.24,-0.399 0.456,-0.479c0.073,-0.027 0.145,-0.038 0.222,-0.046l0.076,0Zm0.076,-3.742c0.075,0.016 0.146,0.034 0.216,0.068c0.183,0.09 0.325,0.254 0.386,0.449c0.023,0.074 0.03,0.147 0.034,0.224l0,0.75c-0.007,0.13 -0.031,0.25 -0.094,0.364c-0.037,0.067 -0.084,0.128 -0.139,0.18c-0.055,0.052 -0.118,0.096 -0.187,0.13c-0.278,0.136 -0.622,0.084 -0.847,-0.13c-0.11,-0.105 -0.187,-0.243 -0.218,-0.393c-0.013,-0.066 -0.012,-0.083 -0.015,-0.151l0,-0.75c0.005,-0.103 0.02,-0.2 0.061,-0.295c0.091,-0.212 0.278,-0.373 0.501,-0.431c0.075,-0.019 0.149,-0.023 0.226,-0.023c0.025,0.003 0.05,0.005 0.076,0.008Z"/></svg>