<?xml version="1.0" encoding="UTF-8" standalone="no"?><!DOCTYPE svg PUBLIC "-//W3C//DTD SVG 1.1//EN" "http://www.w3.org/Graphics/SVG/1.1/DTD/svg11.dtd"><svg width="45px" height="45px" viewBox="0 0 45 45" version="1.1" xmlns="http://www.w3.org/2000/svg" xmlns:xlink="http://www.w3.org/1999/xlink" xml:space="preserve" style="fill-rule:evenodd;clip-rule:evenodd;stroke-linejoin:round;stroke-miterlimit:1.41421;"><path d="M2.955,26.114l-0.062,-2.824c0.056,0.002 3.201,0.194 4.714,0.29l0.01,1.488l-0.379,0.795l0.061,1.588l-0.119,-0.008c0.121,0.128 0.356,0.46 0.356,0.46l-0.426,0.412c0.422,0.004 0.844,0.008 1.267,0.012c0.018,0 0.093,0.014 0.114,0.021c0.129,0.054 0.23,0.154 0.307,0.269c0.13,0.191 0.196,0.428 0.174,0.659c-0.012,0.121 -0.048,0.242 -0.128,0.336c-0.043,0.051 -0.096,0.089 -0.152,0.123c-0.093,0.052 -0.193,0.089 -0.287,0.139c-0.031,0.018 -0.062,0.037 -0.09,0.059c-0.021,0.017 -0.039,0.037 -0.061,0.052c-0.011,0.004 -1.163,0.154 -1.164,0.154c-0.093,0.457 -0.497,0.805 -0.981,0.805c-0.451,0 -0.833,-0.3 -0.958,-0.71c-0.022,-0.001 -0.289,-0.02 -0.299,-0.024c-0.366,-0.055 -0.831,-0.45 -0.908,-0.707c-0.027,-0.093 -0.021,-0.177 0.012,-0.266c0.035,-0.097 0.093,-0.185 0.158,-0.264c0.182,-0.223 0.43,-0.395 0.687,-0.521c0.166,-0.082 0.318,-0.126 0.504,-0.144c0.16,-0.016 0.59,-0.004 0.801,-0.002l0,-0.942c-1.034,-0.073 -2.056,-0.421 -2.715,-0.848c-0.16,-0.104 -0.304,-0.239 -0.436,-0.402Zm8.918,0.392c0.623,0.004 1.246,0.006 1.869,0.004c0.601,-0.001 1.202,-0.003 1.802,-0.023c0.095,-0.003 0.189,-0.008 0.284,-0.014c0.101,-0.02 0.2,-0.046 0.289,-0.1c0.036,-0.021 0.069,-0.046 0.1,-0.075c0.238,-0.222 0.248,-0.581 0.257,-0.883c0.002,-0.088 0.004,-0.184 0.005,-0.271c0.001,-0.093 0.001,-0.239 0.001,-0.331c0,-0.312 -0.001,-0.482 -0.005,-0.798c-0.003,-0.3 -0.007,-0.6 -0.012,-0.9c-0.007,-0.445 -0.016,-0.89 -0.026,-1.335c-0.01,-0.479 -0.022,-0.958 -0.034,-1.437l3.422,-0.122l0.025,-0.004l0.03,-0.005c0.194,-0.045 0.381,-0.117 0.561,-0.199c0.017,-0.009 0.034,-0.017 0.05,-0.025c1.068,0.511 1.281,0.658 2.396,1.513c0.033,0 0.291,-0.024 0.706,-0.066l12.258,0.101c-0.039,0.03 -0.073,0.066 -0.1,0.108c-0.017,0.032 -0.016,0.032 -0.029,0.065c0.005,0.037 0.009,0.071 0.026,0.105c0.066,0.136 0.236,0.191 0.372,0.223c0.039,0.01 0.079,0.018 0.119,0.025c0.068,0.011 0.108,0.016 0.177,0.024c0.344,0.036 0.692,0.031 1.036,0.019c0.43,-0.016 0.858,-0.048 1.286,-0.088c0.299,-0.028 0.598,-0.059 0.897,-0.094c0.008,-0.001 0.016,-0.001 0.024,-0.002l-0.031,1.727c-7.788,1.571 -18.567,3.417 -23.167,3.749c-0.12,0.008 -0.279,0.019 -0.34,0.022l-0.276,0.592l1.913,0.019c0.246,-0.011 0.653,0.465 0.601,1.011c-0.055,0.561 -0.226,0.685 -0.8,0.76c-0.592,0.078 -1.103,0.146 -1.576,0.198l-0.036,0.001c-0.08,0.473 -0.492,0.835 -0.988,0.835c-0.473,0 -0.87,-0.33 -0.975,-0.772c-0.217,0.006 -0.342,0.006 -0.384,0.003c-0.663,-0.379 -1.034,-0.61 -1.042,-0.881c0.057,-0.596 1.214,-1.217 1.727,-1.188l0.771,0.007c0,0 0.217,-0.537 0.216,-0.539c-2.609,0.129 -5.229,0.155 -7.873,-0.008l-0.06,-1.573l0.379,-0.793l-0.025,-3.445c0.607,-1.025 1.765,-1.733 2.425,-1.89c0.031,-0.05 0.062,-0.098 0.092,-0.144c0.158,0.144 0.316,0.296 0.504,0.401c0.157,0.087 0.328,0.134 0.502,0.172l0.078,0.172c-0.419,-0.07 -0.752,-0.115 -1.134,-0.469c-0.917,0.316 -1.706,0.877 -2.3,1.823c0.545,0.712 1.193,1.29 3.057,1.104l0.49,-2.209l0.021,0.045l-0.494,3.741l-0.249,1.892l-0.003,0.001c-0.057,0.01 -0.113,0.022 -0.168,0.038c-0.044,0.013 -0.089,0.027 -0.132,0.043c-0.034,0.012 -0.067,0.025 -0.101,0.04c-0.033,0.014 -0.065,0.029 -0.097,0.046c-0.02,0.011 -0.041,0.023 -0.06,0.035c-0.094,0.058 -0.206,0.15 -0.196,0.273c0.004,0.045 0.02,0.092 0.04,0.132c0.019,0.037 0.044,0.071 0.074,0.101c0.045,0.045 0.101,0.08 0.159,0.106c0.203,0.091 0.436,0.095 0.655,0.092c0.19,-0.003 0.381,-0.012 0.569,-0.046c0.173,-0.031 0.357,-0.084 0.49,-0.206c0.027,-0.026 0.052,-0.054 0.073,-0.086c0.017,-0.025 0.032,-0.053 0.043,-0.082c0.007,-0.02 0.013,-0.041 0.014,-0.062c0.006,-0.107 -0.083,-0.166 -0.172,-0.203Zm-5.581,0.877l0,0.924l0.546,0.006l0.467,-0.429l-0.339,-0.45l-0.674,-0.051Zm5.79,-6.661l-0.781,5.689c0.026,0.024 0.046,0.04 0.076,0.057c0.025,0.011 0.049,0.02 0.074,0.028c0.106,0.03 0.215,0.049 0.321,0.081c0.055,0.016 0.122,0.036 0.16,0.083c0.005,0.008 0.009,0.016 0.012,0.025c0.009,0.058 -0.04,0.12 -0.076,0.159c-0.107,0.114 -0.27,0.164 -0.419,0.195c-0.195,0.04 -0.396,0.049 -0.595,0.052c-0.179,0.002 -0.363,0 -0.535,-0.054c-0.049,-0.016 -0.097,-0.036 -0.14,-0.063c-0.035,-0.022 -0.067,-0.049 -0.092,-0.081c-0.015,-0.019 -0.028,-0.04 -0.037,-0.063c-0.026,-0.058 -0.032,-0.108 0.008,-0.159c0.009,-0.012 0.019,-0.023 0.03,-0.033c0.013,-0.012 0.026,-0.023 0.04,-0.034c0.086,-0.064 0.188,-0.108 0.288,-0.144c0.054,-0.02 0.071,-0.024 0.125,-0.041c0.055,-0.014 0.055,-0.014 0.111,-0.027c0.06,-0.011 0.06,-0.01 0.122,-0.018l0.756,-5.739l-0.309,-0.68l0,-0.001c0.051,-0.024 0.107,-0.034 0.162,-0.043c0.079,-0.012 0.158,-0.017 0.238,-0.021c0.069,-0.001 0.068,-0.001 0.138,-0.001c0.26,0.01 0.526,0.048 0.77,0.146c0.019,0.009 0.038,0.018 0.056,0.029l-0.5,0.638l-0.003,0.02Zm0.488,-0.478l-0.014,0.018l3.747,0.082c0.012,0.479 0.024,0.959 0.034,1.438c0.006,0.292 0.012,0.584 0.018,0.876c0.006,0.305 0.011,0.61 0.015,0.915c0.004,0.279 0.007,0.581 0.009,0.86c0.001,0.127 0.001,0.253 0.001,0.38c0,0.092 0,0.237 -0.001,0.33c-0.001,0.087 -0.003,0.182 -0.005,0.269c-0.003,0.091 -0.004,0.11 -0.009,0.196c-0.013,0.241 -0.062,0.521 -0.278,0.666c-0.041,0.027 -0.087,0.049 -0.134,0.065c-0.07,0.024 -0.139,0.034 -0.212,0.039l-0.093,0.005c-0.389,0.016 -0.777,0.02 -1.166,0.024c-0.611,0.005 -1.222,0.004 -1.833,0.003c-0.201,-0.001 -0.403,-0.001 -0.605,-0.002c-0.183,-0.001 -0.366,0.003 -0.549,-0.003c0.005,0.001 -0.029,-0.005 -0.046,-0.011c-0.017,-0.006 -0.026,-0.013 -0.042,-0.024l0.469,-3.414l3.868,0c0.218,-0.014 0.328,-0.173 0.329,-0.476l0,-1.439c0.007,-0.238 -0.158,-0.333 -0.454,-0.319l-3.423,0l0.374,-0.478Zm-9.807,1.689l0.089,4.046c-0.354,-0.494 -0.624,-1.191 -0.9,-1.985l0,-1.695c0.061,-0.289 0.422,-0.354 0.764,-0.364l0.047,-0.002Zm-0.972,0.504l0,1.455c-0.434,-0.061 -1.8,-0.295 -1.791,-0.834c0.008,-0.466 1.334,-0.591 1.791,-0.621Zm40.858,-0.907c0.247,0.55 0.217,0.879 0.054,1.33c-0.229,0.313 -0.965,0.349 -1.436,0.452c-0.489,0.102 -0.995,0.206 -1.514,0.311l0.03,-1.717c0.326,-0.038 0.651,-0.08 0.977,-0.123c0.51,-0.069 1.02,-0.148 1.53,-0.216l0.359,-0.037Zm-35.056,0.202l0.013,1.748c0,0 -4.713,-0.291 -4.715,-0.291l-0.028,-1.259c0.717,-0.024 1.977,-0.076 2.582,-0.053c0.857,-0.001 1.701,-0.006 2.148,-0.145Zm9.431,1.13c0.344,0 2.16,0.035 2.453,0.015c0.294,-0.019 1.407,-0.435 1.468,-0.609c0.056,-0.159 -0.687,-1.437 -0.687,-1.437c-0.079,-0.176 -0.233,-0.251 -0.437,-0.262l-2.843,0.09c-0.219,0.011 -0.344,0.037 -0.329,0.297l0.047,1.547c0.021,0.271 0.092,0.343 0.328,0.359Zm3.291,-2.697c-0.256,0.114 0.551,1.014 0.98,1.753c0.211,0.21 0.407,0.261 0.588,0.163l0.694,-0.383c0.134,-0.063 0.095,-0.128 0.005,-0.192c-0.653,-0.538 -1.384,-1.023 -2.145,-1.357c-0.05,-0.021 -0.081,-0.002 -0.122,0.016Zm17.4,1.269c-0.426,0.009 -0.858,0.019 -1.279,0.094c-0.116,0.02 -0.232,0.045 -0.342,0.088c-0.062,0.024 -0.126,0.054 -0.171,0.105c-0.004,0.005 -0.004,0.005 -0.008,0.011c0.009,0.022 0.033,0.039 0.053,0.052c0.059,0.037 0.128,0.057 0.195,0.073c0.12,0.029 0.243,0.043 0.365,0.053c0.18,0.014 0.361,0.018 0.541,0.017c0.551,-0.002 1.103,-0.044 1.652,-0.095c0.837,-0.077 1.672,-0.185 2.505,-0.3l0,0c-1.009,-0.04 -2.017,-0.09 -3.027,-0.1c-0.242,0 -0.242,0 -0.484,0.002Zm5.272,-7.337l-0.211,0.722l0.337,0.336l-3.396,6.13c-0.506,-0.019 -1.011,-0.034 -1.517,-0.038c-0.244,0 -0.243,-0.001 -0.487,0.002c-0.257,0.005 -0.513,0.013 -0.769,0.032c-0.207,0.016 -0.415,0.038 -0.618,0.079c-0.048,0.009 -0.096,0.02 -0.143,0.033c-0.048,0.013 -0.097,0.027 -0.145,0.045l-11.529,-0.095c2.899,-0.295 8.671,-0.902 8.805,-0.902c0.176,0 2.706,-0.398 3.07,-0.586c0.361,-0.185 1.111,-0.996 1.746,-1.712c0.207,-0.234 3.457,-4.087 3.457,-4.087l1.4,0.041Zm2.013,0.059l-2.326,7.228l-0.543,-0.008c-0.134,-0.003 -0.268,-0.007 -0.403,-0.011c-0.624,-0.022 -1.248,-0.051 -1.873,-0.075l3.411,-6.156l-0.351,-0.351l0.2,-0.682l1.885,0.055Zm-33.836,5.916c-0.139,-0.033 -0.276,-0.077 -0.401,-0.146c-0.154,-0.086 -0.284,-0.206 -0.414,-0.323c-0.026,-0.023 -0.052,-0.047 -0.077,-0.071l-0.034,0.037c0.367,-0.547 0.685,-0.795 1.15,-0.929c1.388,-0.214 5.655,-0.135 7.136,0.332c0.829,0.261 1.458,0.278 1.878,0.948c-0.153,0.072 -0.311,0.13 -0.472,0.176c-0.038,0.01 -0.074,0.02 -0.113,0.025l-1.178,0.042l0.01,-0.012l-0.896,-0.708c0.014,-0.007 0.026,-0.016 0.038,-0.026c0.059,-0.049 0.1,-0.118 0.135,-0.185c0.056,-0.108 0.097,-0.224 0.131,-0.34l-0.097,-0.028l-0.005,0.019l-0.016,0.052c-0.029,0.086 -0.06,0.17 -0.102,0.251c-0.029,0.055 -0.062,0.114 -0.11,0.155c-0.035,0.03 -0.082,0.038 -0.126,0.047c-0.073,0.014 -0.148,0.024 -0.223,0.032c-0.349,0.038 -0.7,0.052 -1.051,0.065c-1.047,0.039 -2.096,0.044 -3.143,0.026c-0.342,-0.006 -0.685,-0.014 -1.027,-0.033c-0.11,-0.007 -0.22,-0.014 -0.33,-0.026c-0.048,-0.005 -0.101,-0.009 -0.148,-0.025l-0.005,-0.017c-0.084,-0.009 -0.167,-0.017 -0.248,-0.043c-0.049,-0.015 -0.096,-0.035 -0.138,-0.064c-0.149,-0.099 -0.21,-0.277 -0.251,-0.443c-0.003,-0.013 -0.006,-0.027 -0.009,-0.04l-0.098,0.022c0.042,0.186 0.104,0.383 0.256,0.51c0.03,0.025 0.063,0.046 0.097,0.065c0.066,0.034 0.136,0.054 0.207,0.07c0.04,0.007 0.08,0.013 0.12,0.017l0.009,0.006l0.013,0.006c0.076,0.027 0.16,0.034 0.24,0.041c0.108,0.01 0.169,0.014 0.28,0.02c0.343,0.02 0.687,0.028 1.03,0.034c0.969,0.017 1.939,0.012 2.907,-0.018c0.409,-0.012 0.82,-0.027 1.227,-0.066c0.102,-0.01 0.205,-0.021 0.305,-0.041c0.007,-0.001 0.013,-0.003 0.02,-0.004l0.868,0.686l-2.153,0.077l-3.723,-0.081l0.038,-0.049c0.011,-0.009 0.016,-0.012 0.022,-0.029c0.022,-0.058 -0.04,-0.102 -0.085,-0.124c-0.013,-0.006 -0.026,-0.013 -0.039,-0.019c-0.015,-0.006 -0.031,-0.012 -0.047,-0.018c-0.241,-0.09 -0.505,-0.126 -0.761,-0.136c-0.072,0 -0.072,0 -0.143,0.001c-0.059,0.003 -0.075,0.003 -0.133,0.008c-0.021,0.002 -0.041,0.004 -0.061,0.007c-0.019,0.002 -0.038,0.005 -0.057,0.008c-0.018,0.002 -0.035,0.006 -0.052,0.009c-0.016,0.003 -0.032,0.007 -0.047,0.011c-0.014,0.003 -0.028,0.007 -0.041,0.012c-0.05,0.015 -0.122,0.048 -0.113,0.112c0.001,0.006 0.004,0.012 0.006,0.017l0.044,0.098Z" style="fill:#333;"/></svg>