<?xml version="1.0" encoding="UTF-8" standalone="no"?>
<!DOCTYPE svg PUBLIC "-//W3C//DTD SVG 1.1//EN" "http://www.w3.org/Graphics/SVG/1.1/DTD/svg11.dtd">
<svg width="45px" height="45px" viewBox="0 0 45 45" version="1.1" xmlns="http://www.w3.org/2000/svg" xmlns:xlink="http://www.w3.org/1999/xlink" xml:space="preserve" style="fill-rule:evenodd;clip-rule:evenodd;stroke-linejoin:round;stroke-miterlimit:1.41421;">
    <path id="Draufsicht" d="M5.151,30.234C5.129,30.233 4.862,30.214 4.852,30.21C4.486,30.155 4.021,29.76 3.944,29.503C3.917,29.41 3.923,29.326 3.956,29.237C3.991,29.14 4.049,29.052 4.114,28.973C4.296,28.75 4.544,28.578 4.801,28.452C4.967,28.37 5.119,28.326 5.305,28.308C5.465,28.292 5.895,28.304 6.106,28.306L6.106,27.364C5.072,27.291 4.05,26.943 3.391,26.516C2.74,26.094 2.352,25.146 1.952,23.994L1.952,22.299C2.013,22.01 2.374,21.945 2.716,21.935C3.394,21.914 4.796,21.852 5.445,21.877C6.343,21.876 7.227,21.871 7.655,21.711C8.251,20.651 9.444,19.916 10.118,19.756C10.538,19.076 10.873,18.788 11.388,18.64C12.776,18.426 17.043,18.505 18.524,18.972C19.367,19.237 20.004,19.251 20.423,19.955C21.55,20.493 21.749,20.628 22.887,21.501C23.108,21.501 33.137,20.441 33.314,20.441C33.49,20.441 36.02,20.043 36.384,19.855C36.745,19.67 37.495,18.859 38.13,18.143C38.337,17.909 41.587,14.056 41.587,14.056L45,14.156L42.636,21.501C42.897,22.068 42.869,22.401 42.703,22.86C42.474,23.173 41.738,23.209 41.267,23.312C33.43,24.944 21.394,27.041 16.461,27.397C16.341,27.405 16.182,27.416 16.121,27.419L15.845,28.011L17.758,28.03C18.004,28.019 18.411,28.495 18.359,29.041C18.304,29.602 18.133,29.726 17.559,29.801C16.967,29.879 16.456,29.947 15.983,29.999L15.947,30C15.867,30.473 15.455,30.835 14.959,30.835C14.486,30.835 14.089,30.505 13.984,30.063C13.767,30.069 13.642,30.069 13.6,30.066C12.937,29.687 12.566,29.456 12.558,29.185C12.615,28.589 13.772,27.968 14.285,27.997L15.056,28.004C15.056,28.004 15.273,27.467 15.272,27.465C12.591,27.598 9.898,27.621 7.18,27.443C7.301,27.571 7.536,27.903 7.536,27.903L7.11,28.315C7.532,28.319 7.954,28.323 8.377,28.327C8.395,28.327 8.47,28.341 8.491,28.348C8.62,28.402 8.721,28.502 8.798,28.617C8.928,28.808 8.994,29.045 8.972,29.276C8.96,29.397 8.924,29.518 8.844,29.612C8.801,29.663 8.748,29.701 8.692,29.735C8.599,29.787 8.499,29.824 8.405,29.874C8.374,29.892 8.343,29.911 8.315,29.933C8.294,29.95 8.276,29.97 8.254,29.985C8.243,29.989 7.304,30.114 7.092,30.139L7.093,30.139C7.092,30.14 7.091,30.142 7.09,30.143C6.997,30.6 6.593,30.944 6.109,30.944C5.658,30.944 5.276,30.644 5.151,30.234ZM6.292,27.383L6.292,28.307L6.838,28.313L7.305,27.884L6.966,27.434L6.292,27.383ZM1.791,22.437L1.791,23.892C1.357,23.831 -0.009,23.597 0,23.058C0.008,22.592 1.334,22.467 1.791,22.437ZM11.917,20.722C12.042,20.722 15.697,20.722 15.697,20.722C15.872,20.756 16.094,20.715 16.072,21.065C16.072,21.065 16.072,22.315 16.072,22.44C16.072,22.565 16.04,22.94 15.79,22.94C15.54,22.94 11.564,22.956 11.564,22.956L11.917,20.722ZM17.024,22.862C17.368,22.862 19.184,22.897 19.477,22.877C19.771,22.858 20.884,22.442 20.945,22.268C21.001,22.109 20.258,20.831 20.258,20.831C20.179,20.655 20.025,20.58 19.821,20.569L16.978,20.659C16.759,20.67 16.634,20.696 16.649,20.956L16.696,22.503C16.717,22.774 16.788,22.846 17.024,22.862ZM10.16,19.888C10.551,20.25 10.89,20.289 11.323,20.362C11.39,20.406 11.422,20.473 11.416,20.566L11.417,20.567L11.416,20.567L10.917,22.815C9.053,23.001 8.405,22.423 7.86,21.711C8.454,20.765 9.243,20.204 10.16,19.888ZM22.764,21.589C22.764,21.589 22.003,22.075 21.726,22.128C21.533,22.164 21.348,21.984 21.226,21.815C21.226,21.815 20.471,20.653 20.383,20.441C20.291,20.22 20.28,20.159 20.28,20.159C20.272,20.099 20.331,20.078 20.353,20.087C21.064,20.385 21.793,20.826 22.764,21.589Z" style="fill:#333;"/>
</svg>
