<?xml version="1.0" encoding="UTF-8" standalone="no"?><!DOCTYPE svg PUBLIC "-//W3C//DTD SVG 1.1//EN" "http://www.w3.org/Graphics/SVG/1.1/DTD/svg11.dtd"><svg width="45px" height="45px" viewBox="0 0 45 45" version="1.1" xmlns="http://www.w3.org/2000/svg" xmlns:xlink="http://www.w3.org/1999/xlink" xml:space="preserve" style="fill-rule:evenodd;clip-rule:evenodd;stroke-linejoin:round;stroke-miterlimit:1.41421;"><path d="M11.424,29.11c0.021,-0.647 0.04,-1.258 0.077,-1.95c0.018,-0.093 0.084,-0.161 0.176,-0.183c0.018,-0.003 0.036,-0.005 0.054,-0.005c0.119,0.008 0.209,0.1 0.215,0.219c-0.024,0.643 -0.046,1.283 -0.074,1.927c2.424,0.048 4.849,0.097 7.273,0.145c0.003,-0.543 0.008,-1.072 0.024,-1.66c0.016,-0.093 0.08,-0.164 0.171,-0.188c0.018,-0.004 0.035,-0.006 0.054,-0.006c0.119,0.005 0.211,0.094 0.221,0.213c-0.007,0.551 -0.011,1.099 -0.019,1.65c0.517,0.01 1.033,0.02 1.55,0.03l-0.009,0.446c-0.685,-0.013 -7.048,-0.131 -10.316,-0.204c-0.277,-0.015 -0.554,-0.048 -0.823,-0.119c-0.193,-0.05 -0.383,-0.119 -0.552,-0.226c-0.065,-0.04 -0.126,-0.087 -0.18,-0.139c-0.033,-0.031 -0.067,-0.064 -0.087,-0.105c-0.043,-0.088 -0.023,-0.197 0.049,-0.264c0.033,-0.03 0.071,-0.045 0.113,-0.056c0.032,-0.003 0.032,-0.003 0.064,-0.001c0.032,0.006 0.061,0.013 0.09,0.03c0.049,0.029 0.086,0.08 0.131,0.115c0.026,0.02 0.052,0.038 0.08,0.055c0.145,0.083 0.304,0.135 0.466,0.173c0.237,0.056 0.481,0.083 0.725,0.092l0.527,0.011Zm5.658,-7.816c0.41,0.051 0.821,0.099 1.231,0.157c0.888,0.083 1.723,0.419 2.534,0.772c0.41,0.182 0.817,0.37 1.227,0.551c0.457,0.197 0.923,0.396 1.412,0.498c0.188,0.039 0.379,0.055 0.57,0.071c0.215,0.019 0.429,0.034 0.644,0.048c0.77,0.05 1.54,0.08 2.31,0.106c0.163,0.005 0.325,0.01 0.487,0.014l0.043,0.001c-0.082,0.063 -0.158,0.121 -0.158,0.121c0,0 -2.437,0.012 -3.654,0.06c-0.068,0.006 -0.134,0.015 -0.2,0.033c-0.166,0.044 -0.312,0.129 -0.439,0.242c-0.666,0.65 -1.324,1.308 -1.948,1.998c-0.046,0.059 -0.083,0.122 -0.103,0.196c-0.061,0.221 0.035,0.461 0.23,0.581c0.065,0.039 0.135,0.06 0.21,0.072c0.35,0.028 0.701,0.063 1.052,0.077c-0.503,0.247 -1.037,0.476 -1.619,0.688c-0.208,0.039 -0.537,0.075 -0.96,0.104c0,-0.027 0,-0.054 -0.001,-0.081c-0.009,-0.101 -0.038,-0.198 -0.096,-0.282c-0.157,-0.229 -0.465,-0.314 -0.714,-0.187c-0.061,0.031 -0.117,0.073 -0.163,0.123c-0.065,0.073 -0.106,0.158 -0.131,0.252c-0.006,0.029 -0.01,0.056 -0.012,0.086c-0.002,0.047 -0.003,0.094 -0.004,0.142c-0.607,0.017 -1.302,0.021 -2.049,0.006l0.301,-6.449Zm-0.41,6.447c-1.377,-0.031 -2.918,-0.126 -4.398,-0.324l0.008,-0.214c0.001,-0.212 -0.122,-0.416 -0.314,-0.509c-0.071,-0.034 -0.146,-0.051 -0.224,-0.057c-0.026,0 -0.026,0 -0.052,0.001c-0.184,0.015 -0.351,0.109 -0.448,0.269c-0.029,0.048 -0.048,0.098 -0.063,0.15c-0.007,0.029 -0.007,0.028 -0.012,0.057c-0.004,0.044 -0.007,0.087 -0.01,0.131c-0.425,-0.075 -0.84,-0.159 -1.238,-0.254c-0.394,-0.042 -0.815,-0.129 -1.153,-0.199c-0.4,-0.082 -0.468,-0.223 -0.496,-0.303c-1.222,-0.471 -2.108,-1.105 -2.371,-1.947c-0.497,-1.59 5.478,-4.487 9.677,-5.058c-0.042,0.04 -0.073,0.089 -0.095,0.145c-0.112,0.353 -0.182,0.719 -0.244,1.083c0,0.003 -0.001,0.005 -0.001,0.008c-0.097,-0.01 -0.197,0.004 -0.295,0.002c-0.335,-0.001 -0.669,0 -1.003,0.004c-0.331,0.006 -0.662,0.014 -0.994,0.026c-0.105,0.004 -0.21,0.002 -0.315,0.011c-0.467,0.009 -0.911,0.061 -1.335,0.15c-0.009,0.002 -0.018,0.004 -0.027,0.007c-1.857,0.511 -3.978,1.95 -4.778,2.654c-0.287,0.252 -0.505,0.767 -0.368,1.054c0,0 1.711,-0.166 2.438,-0.236c0.205,-0.02 0.416,-0.11 0.517,-0.289c0.301,-0.532 1.132,-1.732 1.642,-2.288c0.215,-0.18 0.461,-0.339 0.723,-0.437c0.353,-0.132 0.714,-0.223 1.193,-0.251c0.054,-0.004 0.097,-0.044 0.105,-0.097l0.022,-0.151c0.062,-0.005 0.125,-0.013 0.187,-0.015c0.331,-0.012 0.661,-0.02 0.991,-0.027c0.332,-0.004 0.332,-0.003 0.663,-0.005c0.113,0.001 0.225,0.001 0.337,0.002c0.103,0.001 0.207,0.009 0.31,0.007c0.031,0.101 0.114,0.183 0.222,0.21c0.497,0.096 0.998,0.165 1.5,0.229l-0.301,6.461Zm10.523,-3.964c0,0 -2.83,2.169 -4.369,2.966c-0.443,-0.03 -0.892,-0.004 -1.335,-0.039c-0.059,-0.009 -0.114,-0.026 -0.165,-0.057c-0.153,-0.093 -0.228,-0.282 -0.18,-0.455c0.016,-0.058 0.044,-0.108 0.081,-0.154c0.621,-0.686 1.276,-1.342 1.938,-1.988c0.114,-0.101 0.243,-0.177 0.391,-0.216c0.059,-0.016 0.118,-0.024 0.179,-0.029c1.152,-0.045 3.46,-0.028 3.46,-0.028Zm16.107,0.512l-0.679,1.387c-0.073,0.149 -0.215,0.253 -0.379,0.278c-0.471,0.07 -1.461,0.217 -1.978,0.293c-0.197,0.03 -0.391,-0.07 -0.482,-0.247l-0.672,-1.313c0.13,0.053 0.26,0.103 0.393,0.15c0.289,0.101 0.591,0.189 0.896,0.229c0.241,0.032 0.486,0.022 0.726,-0.01c0.3,-0.04 0.595,-0.114 0.882,-0.207c0.447,-0.145 0.88,-0.336 1.293,-0.56Zm-34.868,0.369c0.057,-0.006 0.112,0.022 0.141,0.071c0.03,0.049 0.028,0.11 -0.003,0.158c-0.273,0.414 -0.779,1.181 -0.779,1.181c-0.689,-0.265 -1.168,-0.653 -1.54,-1.202c0,0 1.515,-0.145 2.181,-0.208Zm28.837,0.4c0.044,0.002 0.085,-0.018 0.111,-0.052c0.026,-0.035 0.034,-0.08 0.02,-0.121c-0.159,-0.472 -0.579,-1.721 -0.672,-1.997c-0.012,-0.035 -0.007,-0.073 0.014,-0.103c0.102,-0.153 0.426,-0.635 0.607,-0.903c0.024,-0.037 0.027,-0.084 0.006,-0.123c-0.021,-0.039 -0.061,-0.063 -0.106,-0.063c-0.405,0 -1.24,0 -1.487,0c-0.045,0 -0.088,0.017 -0.12,0.049c-0.15,0.15 -0.606,0.602 -0.851,0.846c-0.093,0.092 -0.103,0.238 -0.025,0.342c0.339,0.452 1.215,1.618 1.483,1.976c0.051,0.067 0.129,0.108 0.212,0.112c0.2,0.009 0.579,0.026 0.808,0.037Zm0.051,-3.578l4.139,-5.546c0.135,-0.181 0.348,-0.287 0.574,-0.285c0.128,0.001 0.371,0.003 0.371,0.003l0.056,-0.399l0.31,-0.001l0.047,0.404c0,0 0.19,0.002 0.287,0.003c0.003,-0.176 0.029,-0.406 0.192,-0.405c0.136,0.002 0.172,0.229 0.17,0.408c0.45,0.004 0.894,0.008 1.208,0.011c0.101,0.001 0.195,0.051 0.252,0.135c0.056,0.084 0.067,0.191 0.029,0.285c-0.329,0.82 -1.057,2.632 -1.352,3.366c-0.079,0.199 -0.054,0.425 0.067,0.601c0.411,0.595 1.328,1.923 1.328,1.923l-0.093,0.808c-0.908,1.06 -3.228,2.233 -4.554,2.009c-1.142,-0.192 -2.142,-0.867 -3.131,-1.201c-0.09,-0.244 -0.181,-0.487 -0.263,-0.733l0.582,-0.866c0.03,-0.052 0.05,-0.107 0.053,-0.168c0.009,-0.169 -0.111,-0.317 -0.272,-0.352Zm-24.173,0.462c0.002,-0.074 -0.027,-0.146 -0.079,-0.199c-0.052,-0.053 -0.123,-0.083 -0.197,-0.083c-0.302,0 -0.784,0 -1.114,0c-0.231,0 -0.562,0.104 -0.707,0.284c-0.362,0.449 -1.029,1.259 -1.46,1.949c-0.076,0.122 -0.105,0.267 -0.038,0.394c0.067,0.127 0.204,0.202 0.347,0.19c0.831,-0.069 2.076,-0.171 2.74,-0.226c0.259,-0.021 0.461,-0.235 0.466,-0.495c0.012,-0.526 0.032,-1.376 0.042,-1.814Zm28.695,0.321l1.289,0.744c-0.009,0.019 -0.018,0.037 -0.027,0.055c-0.043,0.083 -0.091,0.163 -0.144,0.24l-1.289,-0.744l0.744,1.289c-0.093,0.064 -0.192,0.122 -0.294,0.171l-0.745,-1.29l0,1.489c-0.075,0.006 -0.15,0.008 -0.225,0.006c-0.039,-0.001 -0.077,-0.003 -0.115,-0.006l0,-1.489l-0.745,1.29c-0.102,-0.049 -0.201,-0.107 -0.295,-0.171l0.745,-1.289l-1.289,0.744c-0.065,-0.093 -0.122,-0.192 -0.171,-0.295l1.146,-0.661l-0.002,-0.001c-0.03,0 -0.059,-0.005 -0.086,-0.014l-0.2,-0.068l-1.057,0c-0.005,-0.06 -0.007,-0.119 -0.007,-0.179l-0.035,0c0,0.004 0,0.008 0,0.011c0,0 0,0.001 0,0.001c0,1.204 0.976,2.18 2.18,2.18c0.001,0 0.001,0 0.001,0c1.204,0 2.181,-0.976 2.181,-2.18c0,0 0,-0.001 0,-0.001c0,-1.204 -0.977,-2.18 -2.181,-2.18c0,0 0,0 -0.001,0c-1.099,0 -2.008,0.814 -2.158,1.872l1.387,0.065l-1.167,-0.674c0.049,-0.102 0.106,-0.201 0.171,-0.294l1.288,0.743l-0.744,-1.289c0.076,-0.053 0.156,-0.101 0.239,-0.144c0.019,-0.009 0.037,-0.018 0.055,-0.027l0.745,1.29l0,-1.488c0.038,-0.003 0.076,-0.005 0.115,-0.007c0.073,-0.001 0.146,0.001 0.219,0.006l0.006,0l0,1.489l0.745,-1.289c0.049,0.023 0.097,0.048 0.145,0.076c0.051,0.029 0.101,0.061 0.149,0.094l-0.744,1.289l1.288,-0.743c0.064,0.093 0.122,0.192 0.171,0.294l-1.288,0.744l1.488,0c0.009,0.113 0.009,0.227 0,0.341l-1.488,0Zm-25.242,-0.125c0.005,-0.099 -0.03,-0.195 -0.097,-0.268c-0.067,-0.073 -0.16,-0.116 -0.259,-0.119c-0.653,-0.021 -1.981,-0.064 -2.556,-0.082c-0.152,-0.005 -0.281,0.114 -0.288,0.266c-0.02,0.444 -0.059,1.318 -0.082,1.821c-0.004,0.097 0.034,0.191 0.103,0.258c0.07,0.067 0.165,0.101 0.262,0.093c0.688,-0.059 2.112,-0.18 2.632,-0.224c0.112,-0.009 0.2,-0.1 0.206,-0.213c0.018,-0.349 0.056,-1.083 0.079,-1.532Zm16.525,1.528c-0.49,0.314 -0.836,0.353 -0.972,0l-0.746,0l0,-0.26l-3.723,-0.005c0,0 -2.315,-0.068 -3.467,-0.156c-0.169,-0.015 -0.339,-0.028 -0.508,-0.048c-0.438,-0.064 -0.852,-0.219 -1.261,-0.385c-0.166,-0.069 -0.166,-0.069 -0.331,-0.141c-1.06,-0.468 -2.108,-1.009 -3.249,-1.252c-0.091,-0.018 -0.182,-0.034 -0.274,-0.048c-0.09,-0.013 -0.18,-0.023 -0.27,-0.031c-0.943,-0.133 -1.894,-0.217 -2.829,-0.398c-0.097,-0.03 -0.154,-0.112 -0.147,-0.214c0.06,-0.353 0.146,-0.701 0.234,-1.048c0.021,-0.063 0.059,-0.113 0.114,-0.15c0.054,-0.032 0.112,-0.057 0.169,-0.082c5.556,-0.638 10.18,0.608 11.423,1.529c0.168,0.202 0.372,0.374 0.564,0.555c0.094,0.081 0.199,0.136 0.32,0.167c0.033,0.007 0.065,0.012 0.098,0.016c0.436,0.03 0.872,0.04 1.308,0.059c0.618,0.028 1.237,0.055 1.856,0.082c1.088,0.047 2.176,0.094 3.264,0.137c0.114,0.004 0.227,0.008 0.341,0.012c-0.147,0.147 -0.289,0.3 -0.43,0.453c-0.088,0.1 -0.13,0.235 -0.117,0.368c0.007,0.073 0.033,0.142 0.07,0.205c0.083,0.128 0.168,0.254 0.256,0.38l-1.024,-0.002l0,0.257l-0.669,0Zm-13.682,-1.219c0.069,-0.114 0.073,-0.255 0.012,-0.373c-0.061,-0.118 -0.18,-0.195 -0.312,-0.204c-0.379,-0.026 -0.852,-0.058 -1.181,-0.08c-0.104,-0.007 -0.207,0.028 -0.286,0.098c-0.078,0.07 -0.125,0.168 -0.13,0.272c-0.021,0.443 -0.053,1.143 -0.07,1.493c-0.003,0.055 0.018,0.11 0.056,0.15c0.039,0.041 0.092,0.064 0.148,0.064c0.201,0 0.498,0 0.696,0c0.13,0 0.251,-0.068 0.318,-0.18c0.168,-0.278 0.499,-0.826 0.749,-1.24Zm8.043,-1.448c0.19,0.006 0.438,0.008 0.565,0.018c0.112,0.008 0.059,0.142 0.173,0.15c2.461,0.179 5.446,0.323 7.278,0.403c-0.122,0.105 -0.239,0.214 -0.354,0.326c-0.024,0 -0.048,-0.001 -0.072,-0.002c-0.125,-0.004 -0.249,-0.008 -0.373,-0.013c-0.459,-0.017 -0.917,-0.037 -1.375,-0.056c-1.248,-0.053 -2.497,-0.107 -3.745,-0.163c-0.444,-0.019 -0.89,-0.011 -1.331,-0.061c-0.113,-0.019 -0.213,-0.063 -0.304,-0.134c-0.166,-0.143 -0.305,-0.316 -0.462,-0.468Zm-1.968,-0.518c0.441,0.146 1.16,0.641 1.072,0.988c-0.089,0.346 -0.936,0.354 -1.393,0.267c-0.319,-0.061 -0.909,-0.463 -0.613,-1.023c0.244,-0.462 0.801,-0.277 0.934,-0.232Zm-8.557,-3.395c0.842,-0.681 2.04,-0.692 2.893,-0.044c6.613,-0.08 12.894,-0.02 17.852,-0.095c0.056,0.002 0.152,0.03 0.158,0.154c0.005,0.126 -0.097,0.177 -0.146,0.178c-5.539,0.07 -12.784,0.249 -15.084,0.323c-0.988,0.031 -2.667,0.192 -3.573,0.284l-0.03,0.192c0.734,-0.097 1.574,-0.14 2.622,0.025l0.402,1.121c-1.421,-0.194 -2.764,-0.25 -4.197,-0.2c-0.465,0.016 -0.8,0.038 -1.263,0.08l0.437,-0.726c0.282,-0.023 0.565,-0.066 0.858,-0.116l-0.076,-0.344c-0.885,-0.047 -2.508,-0.125 -3.463,-0.129c-2.049,-0.008 -9.372,0.024 -14.226,0.033c-0.047,0.001 -0.125,-0.046 -0.122,-0.145c0.004,-0.158 0.061,-0.177 0.111,-0.182c4.412,-0.061 10.603,-0.295 16.847,-0.409Z"/></svg>