<?xml version="1.0" encoding="UTF-8" standalone="no"?><!DOCTYPE svg PUBLIC "-//W3C//DTD SVG 1.1//EN" "http://www.w3.org/Graphics/SVG/1.1/DTD/svg11.dtd"><svg width="45px" height="45px" viewBox="0 0 45 45" version="1.1" xmlns="http://www.w3.org/2000/svg" xmlns:xlink="http://www.w3.org/1999/xlink" xml:space="preserve" style="fill-rule:evenodd;clip-rule:evenodd;stroke-linejoin:round;stroke-miterlimit:1.41421;"><path d="M30.964,1.86l1.417,0c0.16,0.004 0.315,0.027 0.466,0.083c0.392,0.145 0.703,0.476 0.827,0.88c0.041,0.133 0.058,0.269 0.061,0.408l0,2.06l0.026,0.006l0.021,0.004l0.041,0.009l0.032,0.008l0.03,0.007l0.043,0.011l0.018,0.005l0.054,0.014l0.072,0.02l0.058,0.017l0.014,0.004l0.046,0.015l0.025,0.008l0.036,0.011l0.035,0.012l0.025,0.009l0.046,0.016l0.014,0.005l0.06,0.021c0.02,0.008 0.039,0.015 0.059,0.023l0.039,0.015l0.036,0.015l0.069,0.028l0.043,0.019c0.832,0.362 1.552,0.948 2.076,1.697l0.03,0.043l0.03,0.044l0.015,0.024c0.043,0.065 0.085,0.131 0.125,0.198l0.03,0.052c0.175,0.305 0.309,0.628 0.445,0.953c0.11,0.261 0.218,0.523 0.324,0.786c0.247,0.614 0.481,1.232 0.704,1.855l0.053,0.147l0.056,0.158c0.067,0.191 0.133,0.382 0.198,0.574l0.056,0.168l0.05,0.149c0.058,0.176 0.116,0.353 0.172,0.529l0.064,0.201l0.048,0.156c0.029,0.091 0.057,0.183 0.085,0.274l0.005,0.017l0.013,0.043l0.034,0.114l0.023,0.075l0.02,0.066l0.018,0.061l0.026,0.091c0.384,1.299 0.715,2.61 0.995,3.933c0.284,-0.316 0.573,-0.628 0.864,-0.938l0,-2.278c0,-0.519 0.421,-0.941 0.941,-0.941l1.882,0c0.519,0 0.941,0.422 0.941,0.941l0,3.764c0,0.52 -0.422,0.941 -0.941,0.941l-1.882,0c-0.37,0 -0.691,-0.214 -0.845,-0.525c-0.212,0.228 -0.425,0.455 -0.639,0.682c0.074,0.415 0.144,0.832 0.208,1.25l-0.002,0c0.272,1.756 0.456,3.526 0.555,5.301c0.081,1.448 0.079,4.351 0.079,4.351l-0.046,1.511c-0.04,0.924 -0.101,1.854 -0.183,2.787l0,8.778c-0.004,0.161 -0.027,0.318 -0.083,0.47c-0.137,0.374 -0.439,0.676 -0.813,0.813c-0.129,0.047 -0.262,0.071 -0.399,0.081c-0.933,0.024 -1.867,0.002 -2.801,0.002c-0.138,-0.004 -0.273,-0.02 -0.406,-0.062c-0.402,-0.125 -0.731,-0.439 -0.876,-0.834c-0.056,-0.152 -0.079,-0.309 -0.083,-0.47l0,-3.925l-13.338,0.134l-13.337,-0.134l0,3.925c-0.002,0.07 -0.002,0.07 -0.007,0.14c-0.018,0.135 -0.047,0.266 -0.101,0.392c-0.137,0.324 -0.402,0.589 -0.726,0.726c-0.148,0.063 -0.302,0.094 -0.462,0.106c-0.933,0.024 -1.867,0.002 -2.8,0.002c-0.139,-0.004 -0.274,-0.02 -0.406,-0.062c-0.403,-0.125 -0.732,-0.439 -0.877,-0.834c-0.056,-0.152 -0.079,-0.309 -0.083,-0.47l0,-8.778c-0.025,-0.287 -0.048,-0.574 -0.069,-0.86l-0.001,-0.017l-0.002,-0.027c-0.02,-0.273 -0.142,-2.559 -0.157,-3.394l0,0l-0.001,-0.062c-0.033,-1.855 0.02,-3.712 0.166,-5.562c0.106,-1.348 0.262,-2.692 0.469,-4.028l-0.002,0c0.064,-0.415 0.133,-0.829 0.207,-1.241c-0.217,-0.23 -0.433,-0.46 -0.648,-0.691c-0.154,0.311 -0.474,0.525 -0.845,0.525l-1.882,0c-0.519,0 -0.941,-0.421 -0.941,-0.941l0,-3.764c0,-0.519 0.422,-0.941 0.941,-0.941l1.882,0c0.52,0 0.941,0.422 0.941,0.941l0,2.278c0.294,0.313 0.586,0.628 0.872,0.947c0.343,-1.617 0.761,-3.217 1.258,-4.799l0.022,-0.072l0.016,-0.051l0.021,-0.066l0.014,-0.042c0.026,-0.083 0.052,-0.165 0.079,-0.247l0.003,-0.008l0.007,-0.022l0.048,-0.147l0.037,-0.113l0.005,-0.015l0.003,-0.009c0.028,-0.084 0.055,-0.167 0.083,-0.25c0.316,-0.936 0.658,-1.862 1.027,-2.779c0.105,-0.263 0.213,-0.525 0.323,-0.786c0.137,-0.325 0.27,-0.648 0.445,-0.953l0,0l0.002,-0.002l0.029,-0.05c0.04,-0.067 0.081,-0.133 0.124,-0.198l0.004,-0.006l0.005,-0.007l0.01,-0.017l0.015,-0.021c0.542,-0.799 1.305,-1.42 2.19,-1.788l0.002,-0.001l0.003,-0.001l0.034,-0.014l0.012,-0.005c0.017,-0.007 0.034,-0.013 0.051,-0.02l0.006,-0.003l0.018,-0.006l0.026,-0.01l0.015,-0.006l0.011,-0.004l0.009,-0.004l0.015,-0.005l0.038,-0.014l0.008,-0.002l0.001,-0.001l0.004,-0.001l0.018,-0.006l0.047,-0.017l0.008,-0.002l0.002,-0.001l0.009,-0.003c0.173,-0.058 0.351,-0.106 0.532,-0.145l0,-2.06c0.004,-0.139 0.02,-0.275 0.061,-0.408c0.124,-0.404 0.435,-0.735 0.828,-0.88c0.15,-0.056 0.305,-0.079 0.465,-0.083l1.417,0l0,-0.383l16.918,0l0,0.383Zm-13.285,28.689l-9.652,0l0,2.312c0.643,0.067 1.119,0.116 1.147,0.114l8.505,0l0,-2.426Zm0,0l9.652,0l0,2.426l8.505,0l1.147,-0.121l0,-2.305l-9.652,0l0,-9.604l-4.978,0l-4.674,0l0,9.604Zm-9.652,-9.652l-3.268,0c-0.276,1.767 -0.463,3.549 -0.563,5.336c-0.081,1.437 -0.105,2.877 -0.078,4.316l3.909,0l0,-9.652l1.17,0c-0.094,-0.021 -0.187,-0.049 -0.278,-0.086c-0.381,-0.157 -0.7,-0.448 -0.892,-0.812l0,0.898Zm28.956,0l0,9.652l3.91,0l0.001,-0.073c0.03,-1.695 -0.012,-3.391 -0.133,-5.082c-0.107,-1.506 -0.276,-3.006 -0.509,-4.497l-3.269,0l0,-0.898c-0.191,0.364 -0.51,0.655 -0.892,0.812c-0.09,0.037 -0.183,0.065 -0.277,0.086l1.169,0Zm-27.268,-9.652l-0.085,0.257c-0.136,0.427 -0.266,0.855 -0.382,1.287c-0.251,0.931 -0.447,1.877 -0.581,2.832c-0.108,0.768 -0.176,1.543 -0.2,2.318c-0.013,0.43 -0.01,0.859 0.001,1.289c0.004,0.056 0.003,0.055 0.01,0.111c0.018,0.107 0.045,0.211 0.091,0.31c0.117,0.256 0.332,0.462 0.593,0.569c0.119,0.049 0.241,0.073 0.369,0.082c1.034,0.025 2.069,0.003 3.104,0.003c1.442,0 2.885,0.001 4.327,0.001c6.154,0.001 12.308,0.001 18.462,-0.003c0.128,-0.003 0.253,-0.021 0.375,-0.064c0.299,-0.106 0.545,-0.342 0.664,-0.637c0.041,-0.102 0.063,-0.207 0.076,-0.316c0.009,-0.142 0.006,-0.141 0.01,-0.314c0.009,-0.688 -0.008,-1.375 -0.063,-2.061c-0.105,-1.304 -0.329,-2.597 -0.656,-3.863c-0.111,-0.432 -0.234,-0.861 -0.368,-1.286c-0.053,-0.172 -0.107,-0.344 -0.165,-0.515l-0.002,0c-0.028,-0.082 -0.056,-0.165 -0.085,-0.247l-0.013,-0.037c-0.019,-0.045 -0.04,-0.087 -0.064,-0.129c-0.13,-0.204 -0.331,-0.338 -0.569,-0.38l-0.04,-0.005c-0.208,-0.025 -0.433,-0.048 -0.675,-0.07l-0.01,-0.001l-0.015,-0.002c-0.285,-0.025 -0.569,-0.047 -0.854,-0.068l-0.017,-0.001l-0.138,-0.01c-1.04,-0.07 -3.541,-0.168 -3.541,-0.168c-0.655,-0.023 -1.311,-0.041 -1.943,-0.056l0,-0.001c-1.483,-0.036 -2.967,-0.057 -4.45,-0.07c-0.928,-0.006 -1.857,-0.011 -2.785,-0.011c-1.891,0.009 -3.782,0.037 -5.671,0.134l-0.104,0.006l-0.206,0.011l-0.218,0.012l-0.222,0.014l-0.268,0.017l-0.26,0.017l-0.322,0.023l-0.242,0.019l-0.245,0.019l-0.25,0.022l-0.278,0.025l-0.303,0.028l-0.218,0.022l-0.166,0.017l-0.196,0.021c0,0 -0.324,0.037 -0.451,0.052l-0.015,0.002l-0.043,0.007c-0.047,0.01 -0.092,0.023 -0.137,0.039c-0.215,0.087 -0.379,0.25 -0.467,0.465l-0.014,0.037l-0.041,0.118l-0.043,0.129l-0.001,0Zm27.268,0l-1.013,0l0.019,0.059c0.168,0.524 0.325,1.05 0.462,1.583c0.227,0.883 0.407,1.779 0.532,2.682l0,-4.324l0.793,0c-0.15,-0.411 -0.304,-0.819 -0.464,-1.226c-0.108,-0.275 -0.217,-0.551 -0.329,-0.825l0,2.051Zm-28.956,0l0,4.323c0.014,-0.101 0.029,-0.201 0.044,-0.301c0.15,-0.982 0.363,-1.953 0.631,-2.908c0.105,-0.374 0.219,-0.745 0.34,-1.114l-1.015,0l0,-2.044c-0.059,0.142 -0.117,0.285 -0.174,0.428c-0.215,0.535 -0.421,1.074 -0.618,1.616l0.792,0Zm19.304,-5.659c-1.395,-0.045 -2.79,-0.082 -4.186,-0.097c-0.317,-0.002 -0.634,-0.003 -0.951,-0.002c-1.395,0.01 -2.789,0.046 -4.183,0.089l-0.332,0.01l0,3.789c0.805,-0.015 1.61,-0.023 2.416,-0.026c0.535,-0.001 1.071,0 1.606,0.002c1.877,0.013 3.754,0.034 5.63,0.079l0,-3.844Zm5.042,-3.086c0.088,0.003 0.173,0.014 0.256,0.045c0.209,0.077 0.375,0.254 0.441,0.468c0.023,0.074 0.031,0.149 0.033,0.226l0,1.653l-1.614,-0.196l0,-2.196c0.295,0 0.59,0 0.884,0Zm-18.852,0l-0.884,0c-0.088,0.003 -0.173,0.014 -0.256,0.045c-0.209,0.077 -0.375,0.254 -0.441,0.468c-0.022,0.074 -0.03,0.149 -0.032,0.226l0,1.653l1.613,-0.196l0,-2.196Zm7.876,0.738c0,-0.196 0.03,-0.36 0.088,-0.492c0.044,-0.098 0.103,-0.186 0.179,-0.264c0.075,-0.077 0.158,-0.135 0.248,-0.172c0.12,-0.051 0.258,-0.076 0.414,-0.076c0.283,0 0.509,0.087 0.679,0.263c0.17,0.175 0.254,0.419 0.254,0.732c0,0.31 -0.084,0.552 -0.252,0.727c-0.169,0.175 -0.394,0.263 -0.676,0.263c-0.285,0 -0.512,-0.087 -0.681,-0.261c-0.168,-0.175 -0.253,-0.414 -0.253,-0.72Zm-5.362,0c0,-0.196 0.029,-0.36 0.088,-0.492c0.044,-0.098 0.103,-0.186 0.179,-0.264c0.075,-0.077 0.158,-0.135 0.248,-0.172c0.119,-0.051 0.257,-0.076 0.414,-0.076c0.282,0 0.509,0.087 0.678,0.263c0.17,0.175 0.255,0.419 0.255,0.732c0,0.31 -0.084,0.552 -0.253,0.727c-0.168,0.175 -0.393,0.263 -0.675,0.263c-0.286,0 -0.513,-0.087 -0.681,-0.261c-0.169,-0.175 -0.253,-0.414 -0.253,-0.72Zm14.461,-0.972l-1.424,0l0,1.92l1.46,0l0,-0.323l-1.072,0l0,-0.523l0.964,0l0,-0.323l-0.964,0l0,-0.426l1.036,0l0,-0.325Zm-3.083,0l-0.58,0l0,1.92l0.36,0l0,-1.511l0.38,1.511l0.373,0l0.381,-1.511l0,1.511l0.36,0l0,-1.92l-0.581,0l-0.345,1.31l-0.348,-1.31Zm-3.64,0l-0.397,0l0.458,1.92l0.421,0l0.381,-1.435l0.382,1.435l0.411,0l0.466,-1.92l-0.39,0l-0.294,1.341l-0.337,-1.341l-0.461,0l-0.351,1.319l-0.289,-1.319Zm-3.537,0.016l-0.388,0l0,1.904l1.352,0l0,-0.323l-0.964,0l0,-1.581Zm-1.638,0l-0.388,0l0,1.904l1.352,0l0,-0.323l-0.964,0l0,-1.581Zm-2.804,-0.016l-1.316,0l0,1.92l0.388,0l0,-0.816l0.801,0l0,-0.324l-0.801,0l0,-0.455l0.928,0l0,-0.325Zm0.641,0.959c0,0.217 0.05,0.382 0.15,0.494c0.1,0.112 0.228,0.169 0.382,0.169c0.155,0 0.282,-0.056 0.381,-0.167c0.099,-0.112 0.148,-0.279 0.148,-0.501c0,-0.22 -0.048,-0.384 -0.144,-0.493c-0.097,-0.108 -0.225,-0.162 -0.385,-0.162c-0.159,0 -0.288,0.055 -0.386,0.164c-0.098,0.11 -0.146,0.275 -0.146,0.496Zm5.362,0c0,0.217 0.05,0.382 0.15,0.494c0.101,0.112 0.228,0.169 0.383,0.169c0.154,0 0.281,-0.056 0.38,-0.167c0.099,-0.112 0.149,-0.279 0.149,-0.501c0,-0.22 -0.048,-0.384 -0.145,-0.493c-0.096,-0.108 -0.224,-0.162 -0.384,-0.162c-0.16,0 -0.289,0.055 -0.387,0.164c-0.097,0.11 -0.146,0.275 -0.146,0.496Z"/></svg>