<?xml version="1.0" encoding="UTF-8" standalone="no"?>
<!DOCTYPE svg PUBLIC "-//W3C//DTD SVG 1.1//EN" "http://www.w3.org/Graphics/SVG/1.1/DTD/svg11.dtd">
<svg width="45px" height="45px" viewBox="0 0 45 45" version="1.1" xmlns="http://www.w3.org/2000/svg" xmlns:xlink="http://www.w3.org/1999/xlink" xml:space="preserve" style="fill-rule:evenodd;clip-rule:evenodd;stroke-linejoin:round;stroke-miterlimit:1.41421;">
    <path d="M15.792,42.825C13.667,42.606 11.544,42.381 9.422,42.14C8.837,42.071 8.255,41.952 7.702,41.744C7.334,41.605 6.981,41.426 6.658,41.202C6.449,41.056 6.252,40.892 6.073,40.71C5.953,40.589 5.841,40.46 5.737,40.325C5.459,39.964 5.242,39.56 5.073,39.137C4.897,38.694 4.774,38.231 4.681,37.763C4.652,37.615 4.626,37.467 4.602,37.318C4.574,37.139 4.549,36.959 4.528,36.779C4.498,36.539 4.474,36.298 4.454,36.057C4.429,35.771 4.41,35.484 4.393,35.198L4.387,26.453C4.388,26.431 4.388,26.408 4.39,26.385C4.395,26.34 4.405,26.296 4.419,26.253C4.441,26.188 4.473,26.127 4.515,26.073C4.597,25.964 4.715,25.884 4.847,25.847C4.89,25.835 4.935,25.828 4.981,25.825C5.003,25.824 5.026,25.825 5.049,25.825C5.071,25.828 5.094,25.83 5.116,25.833C5.139,25.837 5.161,25.841 5.183,25.847C5.227,25.859 5.269,25.876 5.309,25.897C5.45,25.972 5.56,26.1 5.611,26.252C5.625,26.295 5.635,26.339 5.64,26.385C5.642,26.407 5.643,26.43 5.644,26.452L5.65,35.159C5.669,35.474 5.691,35.79 5.72,36.105C5.743,36.352 5.77,36.598 5.803,36.843C5.828,37.026 5.856,37.208 5.89,37.389C5.913,37.517 5.939,37.645 5.968,37.772C5.991,37.872 6.016,37.972 6.043,38.072C6.193,38.623 6.415,39.167 6.777,39.614C6.842,39.694 6.912,39.771 6.985,39.844C7.093,39.952 7.211,40.051 7.335,40.141C7.584,40.32 7.859,40.46 8.146,40.567C8.602,40.74 9.084,40.834 9.567,40.891L9.606,40.896L15.832,41.549C16.03,40.523 16.935,39.747 18.019,39.747L25.527,39.747C26.757,39.747 27.755,40.745 27.755,41.975L27.755,42.772C27.755,44.002 26.757,45 25.527,45L18.019,45C16.807,45 15.82,44.03 15.792,42.825ZM5.155,17.011C5.141,16.624 5.132,16.236 5.13,15.849C5.125,15.251 5.136,14.652 5.165,14.055C5.187,13.579 5.222,13.103 5.269,12.628C5.304,12.28 5.346,11.933 5.397,11.587C5.438,11.304 5.485,11.022 5.537,10.74C5.845,9.105 6.36,7.491 7.21,6.053C7.33,5.85 7.457,5.651 7.59,5.457C7.788,5.167 8,4.887 8.227,4.619C8.545,4.244 8.89,3.893 9.26,3.569C9.83,3.071 10.457,2.641 11.122,2.281C12.018,1.794 12.978,1.435 13.962,1.169C13.969,1.156 13.977,1.143 13.984,1.129C14.054,1.012 14.145,0.908 14.251,0.823C14.342,0.751 14.444,0.692 14.553,0.651C14.589,0.637 14.626,0.625 14.664,0.615C14.683,0.61 14.702,0.606 14.721,0.601C14.797,0.585 14.873,0.569 14.949,0.553C15.261,0.49 15.574,0.433 15.889,0.384C16.808,0.239 17.734,0.15 18.663,0.094C19.938,0.016 21.216,0.001 22.494,0L22.499,0L22.506,0C22.589,0 22.671,0 22.753,0C24.597,0.006 26.445,0.043 28.277,0.268C28.753,0.326 29.228,0.397 29.7,0.485C29.856,0.514 30.012,0.544 30.167,0.577C30.203,0.585 30.291,0.603 30.336,0.615C30.392,0.63 30.447,0.649 30.501,0.673C30.643,0.736 30.772,0.828 30.877,0.943C30.94,1.011 30.994,1.087 31.038,1.169C31.215,1.217 31.391,1.268 31.566,1.322C32.131,1.496 32.684,1.704 33.221,1.951C33.8,2.217 34.357,2.534 34.88,2.898C35.206,3.125 35.519,3.371 35.815,3.636C36.261,4.033 36.669,4.471 37.035,4.942C37.601,5.67 38.065,6.474 38.436,7.317C38.973,8.541 39.318,9.842 39.537,11.158C39.665,11.93 39.75,12.708 39.803,13.488C39.862,14.363 39.88,15.24 39.868,16.117C39.864,16.415 39.856,16.713 39.845,17.011C41.477,17.968 42.725,19.949 43.232,21.595C44.125,24.5 44.125,30.459 43.232,33.364C42.536,35.626 40.439,38.521 37.871,38.521L36.804,38.521C36.506,38.529 36.373,38.393 36.369,38.144L36.369,16.909C36.386,16.601 36.541,16.456 36.804,16.439L37.871,16.439C38.033,16.439 38.194,16.45 38.352,16.473C38.358,16.233 38.361,15.993 38.362,15.754C38.365,15.159 38.352,14.565 38.321,13.972C38.296,13.502 38.259,13.032 38.207,12.565C38.167,12.199 38.118,11.835 38.059,11.471C38.018,11.215 37.971,10.959 37.918,10.705C37.876,10.502 37.831,10.3 37.782,10.1C37.475,8.85 37.013,7.627 36.318,6.539C36.219,6.385 36.115,6.233 36.007,6.084C35.841,5.857 35.665,5.638 35.478,5.428C35.203,5.12 34.905,4.832 34.587,4.568C34.079,4.147 33.521,3.787 32.934,3.488C32.218,3.124 31.462,2.848 30.688,2.637C30.595,2.831 30.421,3.385 29.98,3.303C29.942,3.296 29.902,3.297 29.864,3.291C29.845,3.287 29.826,3.283 29.807,3.28C29.737,3.265 29.668,3.25 29.598,3.236C29.284,3.173 28.969,3.117 28.653,3.069C27.802,2.939 26.943,2.861 26.084,2.811C24.892,2.743 23.698,2.73 22.504,2.729L22.5,2.728L22.496,2.729C22.333,2.729 22.17,2.729 22.008,2.73C20.899,2.735 19.791,2.755 18.685,2.825C17.831,2.88 16.979,2.965 16.134,3.102C15.819,3.153 15.505,3.213 15.193,3.28L15.136,3.291C15.117,3.293 15.097,3.296 15.078,3.298C15.039,3.302 15.001,3.307 14.962,3.305C14.552,3.283 14.338,2.758 14.312,2.637C13.443,2.875 12.595,3.193 11.804,3.627C11.251,3.93 10.728,4.29 10.253,4.705C9.961,4.96 9.688,5.234 9.436,5.527C9.261,5.729 9.095,5.94 8.94,6.158C8.833,6.308 8.73,6.462 8.632,6.619C7.942,7.721 7.489,8.957 7.19,10.218C7.137,10.442 7.088,10.667 7.044,10.892C6.989,11.173 6.941,11.454 6.899,11.737C6.844,12.107 6.799,12.479 6.763,12.851C6.717,13.327 6.685,13.805 6.664,14.283C6.638,14.916 6.632,15.549 6.642,16.182C6.643,16.279 6.645,16.376 6.648,16.473C6.806,16.45 6.967,16.439 7.129,16.439L8.196,16.439C8.459,16.456 8.614,16.601 8.631,16.909L8.631,38.144C8.627,38.393 8.494,38.529 8.196,38.521L7.129,38.521C6.989,38.521 6.85,38.512 6.712,38.495C6.645,38.329 6.589,38.158 6.541,37.987C6.514,37.891 6.489,37.793 6.466,37.695C6.436,37.564 6.409,37.431 6.384,37.299C6.353,37.125 6.325,36.951 6.301,36.776C6.269,36.537 6.243,36.298 6.221,36.059C6.193,35.754 6.172,35.448 6.153,35.143L6.147,26.441C6.145,26.404 6.144,26.367 6.14,26.329C6.129,26.23 6.105,26.133 6.069,26.04C5.994,25.849 5.866,25.68 5.703,25.555C5.613,25.485 5.512,25.43 5.405,25.391C5.329,25.363 5.25,25.343 5.17,25.333C5.112,25.325 5.107,25.326 5.054,25.322L5.038,25.322L5.019,25.322C4.997,25.322 4.975,25.322 4.953,25.323C4.922,25.325 4.892,25.328 4.862,25.332C4.78,25.343 4.701,25.363 4.624,25.391C4.444,25.458 4.283,25.57 4.158,25.715C4.078,25.808 4.013,25.914 3.967,26.028C3.931,26.115 3.907,26.207 3.894,26.301C3.888,26.348 3.886,26.395 3.884,26.443L3.89,35.213C3.91,35.54 3.932,35.867 3.961,36.192C3.982,36.432 4.007,36.671 4.037,36.909C4.045,36.977 4.054,37.045 4.064,37.113C2.973,36.071 2.155,34.62 1.768,33.364C0.875,30.459 0.875,24.5 1.768,21.595C2.275,19.949 3.523,17.968 5.155,17.011ZM35.513,16.978C35.512,16.585 35.346,16.566 35.264,16.549C33.641,16.214 33.247,18.565 33.233,20.981C33.214,24.147 33.259,30.772 33.233,33.755C33.2,37.39 33.599,38.697 35.24,38.401C35.329,38.385 35.509,38.277 35.512,38.006C35.554,34.681 35.52,19.508 35.513,16.978ZM9.487,16.978C9.487,16.585 9.654,16.566 9.736,16.549C11.359,16.214 11.753,18.565 11.767,20.981C11.786,24.147 11.741,30.772 11.767,33.755C11.8,37.39 11.401,38.697 9.76,38.401C9.671,38.385 9.491,38.277 9.487,38.006C9.446,34.681 9.48,19.508 9.487,16.978Z" style="fill:#333;"/>
</svg>
