<?xml version="1.0" encoding="UTF-8" standalone="no"?><!DOCTYPE svg PUBLIC "-//W3C//DTD SVG 1.1//EN" "http://www.w3.org/Graphics/SVG/1.1/DTD/svg11.dtd"><svg width="45px" height="45px" viewBox="0 0 45 45" version="1.1" xmlns="http://www.w3.org/2000/svg" xmlns:xlink="http://www.w3.org/1999/xlink" xml:space="preserve" style="fill-rule:evenodd;clip-rule:evenodd;stroke-linejoin:round;stroke-miterlimit:1.41421;"><path d="M31.385,38.976l2.23,3.077c-0.842,0.482 -1.716,0.909 -2.614,1.278c-2.692,1.104 -5.593,1.669 -8.501,1.669c-2.908,0 -5.809,-0.565 -8.501,-1.669c-0.895,-0.367 -1.766,-0.793 -2.606,-1.273l2.229,-3.079c0.585,0.318 1.186,0.603 1.802,0.856c2.241,0.919 4.655,1.388 7.076,1.388c2.421,0 4.835,-0.469 7.076,-1.388c0.618,-0.254 1.222,-0.541 1.809,-0.859Zm-30.926,-21.096l3.607,1.178c-0.357,1.977 -0.396,4.013 -0.119,6.002c0.267,1.91 0.83,3.774 1.665,5.511c0.977,2.034 2.323,3.886 3.951,5.445l-2.229,3.08c-0.119,-0.109 -0.237,-0.22 -0.354,-0.331c-1.961,-1.876 -3.583,-4.105 -4.759,-6.554c-1.004,-2.088 -1.682,-4.331 -2.002,-6.627c-0.344,-2.462 -0.283,-4.982 0.184,-7.425c0.018,-0.093 0.037,-0.186 0.056,-0.279Zm44.088,0.028c0.017,0.084 0.034,0.167 0.05,0.251c0.467,2.443 0.528,4.963 0.184,7.425c-0.32,2.296 -0.998,4.539 -2.002,6.627c-1.176,2.449 -2.798,4.678 -4.759,6.554c-0.114,0.109 -0.23,0.217 -0.347,0.324l-2.23,-3.078c1.625,-1.558 2.969,-3.409 3.945,-5.44c0.835,-1.737 1.398,-3.601 1.664,-5.511c0.277,-1.982 0.239,-4.009 -0.114,-5.979l3.609,-1.173Zm-12.555,12.205l-18.984,0l9.492,-16.897l9.492,16.897Zm-6.982,-30.113c0.305,0.033 0.61,0.073 0.915,0.12c2.101,0.322 4.154,0.947 6.079,1.849c2.211,1.036 4.25,2.437 6.016,4.126c1.83,1.75 3.364,3.807 4.517,6.063c0.161,0.316 0.315,0.636 0.461,0.96l-3.609,1.173c-0.164,-0.342 -0.339,-0.68 -0.524,-1.011c-1.027,-1.843 -2.366,-3.509 -3.94,-4.91c-1.352,-1.204 -2.877,-2.211 -4.515,-2.979c-1.601,-0.751 -3.308,-1.27 -5.055,-1.538c-0.115,-0.017 -0.23,-0.034 -0.345,-0.049l0,-3.804Zm-5.02,0l0,3.804c-0.115,0.015 -0.23,0.032 -0.345,0.049c-1.747,0.268 -3.454,0.787 -5.055,1.538c-1.638,0.768 -3.163,1.775 -4.515,2.979c-1.574,1.401 -2.913,3.067 -3.94,4.91c-0.181,0.325 -0.353,0.655 -0.514,0.99l-3.608,-1.178c0.143,-0.315 0.293,-0.626 0.45,-0.934c1.153,-2.256 2.687,-4.313 4.517,-6.063c1.766,-1.689 3.805,-3.09 6.016,-4.126c1.925,-0.902 3.978,-1.527 6.079,-1.849c0.305,-0.047 0.61,-0.087 0.915,-0.12Z"/></svg>