<?xml version="1.0" encoding="UTF-8" standalone="no"?><!DOCTYPE svg PUBLIC "-//W3C//DTD SVG 1.1//EN" "http://www.w3.org/Graphics/SVG/1.1/DTD/svg11.dtd"><svg width="45px" height="45px" viewBox="0 0 45 45" version="1.1" xmlns="http://www.w3.org/2000/svg" xmlns:xlink="http://www.w3.org/1999/xlink" xml:space="preserve" style="fill-rule:evenodd;clip-rule:evenodd;stroke-linejoin:round;stroke-miterlimit:1.41421;"><path d="M13.684,34.848c-0.774,-0.243 -1.336,-0.966 -1.336,-1.819c0,-1.051 0.853,-1.905 1.905,-1.905c0.906,0 1.666,0.634 1.858,1.483c0,0 13.158,0.645 16.532,0.81c0.48,0.024 0.902,0.324 1.081,0.769c0.517,1.291 1.488,3.84 1.088,3.843c-1.624,0.014 -2.475,-1.541 -2.475,-1.541l-12.134,0.266c0,0 -0.087,1.271 -0.167,2.459c-0.02,0.292 -0.224,0.539 -0.508,0.614c-0.283,0.075 -0.583,-0.039 -0.745,-0.283c-0.815,-1.231 -1.778,-2.685 -1.778,-2.685l-0.847,-0.186c0,0 -2.529,1.751 -3.466,2.4c-0.224,0.155 -0.49,0.238 -0.763,0.238c-0.397,0 -1.004,0 -1.496,0c-0.141,0 -0.269,-0.083 -0.327,-0.212c-0.057,-0.13 -0.032,-0.281 0.063,-0.385c1.106,-1.217 3.515,-3.866 3.515,-3.866Zm0.47,-5.139c0,0 2.544,-4.195 4.389,-7.373c0.088,-0.151 0.225,-0.258 0.394,-0.312c0.055,-0.018 0.11,-0.026 0.168,-0.032c0.057,-0.001 0.056,-0.001 0.114,0.002c0.096,0.013 0.185,0.036 0.271,0.083c0.238,0.129 0.384,0.391 0.369,0.661c-0.006,0.097 -0.033,0.186 -0.072,0.274c-1.737,3.097 -2.271,4.018 -4.08,7.03c-0.149,-0.073 -0.303,-0.134 -0.461,-0.184c-0.277,-0.086 -0.558,-0.129 -0.847,-0.148c-0.116,-0.003 -0.115,-0.004 -0.231,-0.002l-0.014,0.001Zm1.942,-4.695c0,0 -10.834,-3.255 -14.851,-4.462c-0.107,-0.032 -0.175,-0.138 -0.159,-0.249c0.017,-0.112 0.112,-0.194 0.224,-0.194c6.188,0 28.909,0 28.909,0c0,0 3.628,7.097 5.005,9.789c0.089,0.175 0.066,0.385 -0.06,0.536c-0.125,0.15 -0.328,0.211 -0.515,0.155c-3.729,-1.121 -15.687,-4.714 -15.687,-4.714c0.49,-0.835 1.445,-2.52 1.445,-2.52c0,0 0,0 0.001,-0.001c0.262,-0.609 0.063,-1.319 -0.478,-1.703c-0.542,-0.384 -1.278,-0.338 -1.766,0.111c-0.146,0.134 -0.229,0.211 -0.229,0.211c0,0 -1.222,2.03 -1.839,3.041Zm14.123,-5.651c0,0 -22.87,0 -29.912,0c-0.152,0 -0.281,-0.111 -0.304,-0.262c-0.022,-0.15 0.068,-0.294 0.214,-0.339c7.635,-2.356 35.525,-10.96 44.037,-13.586c0.258,-0.08 0.537,0.03 0.671,0.265c0.133,0.235 0.086,0.531 -0.115,0.713c-4.356,3.944 -14.591,13.209 -14.591,13.209Z"/></svg>