<?xml version="1.0" encoding="UTF-8" standalone="no"?><!DOCTYPE svg PUBLIC "-//W3C//DTD SVG 1.1//EN" "http://www.w3.org/Graphics/SVG/1.1/DTD/svg11.dtd"><svg width="45px" height="45px" viewBox="0 0 45 45" version="1.1" xmlns="http://www.w3.org/2000/svg" xmlns:xlink="http://www.w3.org/1999/xlink" xml:space="preserve" style="fill-rule:evenodd;clip-rule:evenodd;stroke-linejoin:round;stroke-miterlimit:1.41421;"><path d="M30.843,41.91L14.291,41.91L14.225,35.181L5.957,20.861L0.139,17.425L8.414,3.09L14.225,6.513L30.776,6.513L36.585,3.107L44.861,17.441L39.036,20.875L30.777,35.18L30.843,41.91ZM29.021,9.554L15.981,9.554L9.46,20.847L15.981,32.14L29.021,32.14L35.541,20.847L29.021,9.554ZM22.513,19.021C21.367,19.021 20.437,19.99 20.437,21.185C20.437,22.38 21.367,23.35 22.513,23.35C23.66,23.35 24.59,22.38 24.59,21.185C24.59,19.99 23.66,19.021 22.513,19.021Z" style="fill:#333;"/></svg>