<?xml version="1.0" encoding="UTF-8" standalone="no"?>
<!DOCTYPE svg PUBLIC "-//W3C//DTD SVG 1.1//EN" "http://www.w3.org/Graphics/SVG/1.1/DTD/svg11.dtd">
<svg width="45px" height="45px" viewBox="0 0 45 45" version="1.1" xmlns="http://www.w3.org/2000/svg" xmlns:xlink="http://www.w3.org/1999/xlink" xml:space="preserve" style="fill-rule:evenodd;clip-rule:evenodd;stroke-linejoin:round;stroke-miterlimit:1.41421;">
    <g transform="matrix(1.03909,0,0,1.03909,-3.49964,-3.48509)">
        <path d="M25.015,43.378C25.917,43.378 26.649,44.11 26.649,45.012C26.649,45.914 25.917,46.646 25.015,46.646C24.113,46.646 23.381,45.914 23.381,45.012C23.381,44.11 24.113,43.378 25.015,43.378ZM29.626,42.796C30.47,42.48 31.413,42.908 31.729,43.753C32.046,44.597 31.617,45.54 30.773,45.856C29.929,46.173 28.986,45.745 28.669,44.9C28.353,44.056 28.781,43.113 29.626,42.796ZM19.818,42.676C20.72,42.676 21.452,43.408 21.452,44.31C21.452,45.211 20.72,45.944 19.818,45.944C18.916,45.944 18.184,45.211 18.184,44.31C18.184,43.408 18.916,42.676 19.818,42.676ZM25.015,44.621C25.231,44.621 25.406,44.796 25.406,45.012C25.406,45.228 25.231,45.403 25.015,45.403C24.799,45.403 24.623,45.228 24.623,45.012C24.623,44.796 24.799,44.621 25.015,44.621ZM30.062,43.96C30.264,43.884 30.49,43.987 30.566,44.189C30.641,44.391 30.539,44.617 30.337,44.693C30.134,44.768 29.909,44.666 29.833,44.464C29.757,44.262 29.86,44.036 30.062,43.96ZM19.818,43.918C20.034,43.918 20.21,44.094 20.21,44.31C20.21,44.525 20.034,44.701 19.818,44.701C19.602,44.701 19.427,44.525 19.427,44.31C19.427,44.094 19.602,43.918 19.818,43.918ZM34.401,40.782C35.245,40.465 36.188,40.894 36.505,41.738C36.821,42.582 36.393,43.525 35.548,43.842C34.704,44.158 33.761,43.73 33.445,42.886C33.128,42.041 33.556,41.098 34.401,40.782ZM14.981,40.674C15.882,40.674 16.615,41.406 16.615,42.308C16.615,43.21 15.882,43.942 14.981,43.942C14.079,43.942 13.347,43.21 13.347,42.308C13.347,41.406 14.079,40.674 14.981,40.674ZM34.837,41.946C35.039,41.87 35.265,41.972 35.341,42.174C35.417,42.377 35.314,42.602 35.112,42.678C34.91,42.754 34.684,42.651 34.608,42.449C34.532,42.247 34.635,42.021 34.837,41.946ZM14.981,41.917C15.197,41.917 15.372,42.092 15.372,42.308C15.372,42.524 15.197,42.699 14.981,42.699C14.765,42.699 14.589,42.524 14.589,42.308C14.589,42.092 14.765,41.917 14.981,41.917ZM26.298,38.29C27.2,38.29 27.932,39.022 27.932,39.924C27.932,40.826 27.2,41.558 26.298,41.558C25.397,41.558 24.664,40.826 24.664,39.924C24.664,39.022 25.397,38.29 26.298,38.29ZM21.103,37.841C22.005,37.841 22.737,38.573 22.737,39.475C22.737,40.377 22.005,41.109 21.103,41.109C20.201,41.109 19.469,40.377 19.469,39.475C19.469,38.573 20.201,37.841 21.103,37.841ZM38.579,37.598C39.424,37.282 40.366,37.71 40.683,38.555C41,39.399 40.571,40.342 39.727,40.658C38.882,40.975 37.94,40.546 37.623,39.702C37.306,38.858 37.735,37.915 38.579,37.598ZM10.85,37.492C11.752,37.492 12.484,38.224 12.484,39.126C12.484,40.028 11.752,40.76 10.85,40.76C9.948,40.76 9.216,40.028 9.216,39.126C9.216,38.224 9.948,37.492 10.85,37.492ZM26.298,39.533C26.514,39.533 26.69,39.708 26.69,39.924C26.69,40.14 26.514,40.316 26.298,40.316C26.083,40.316 25.907,40.14 25.907,39.924C25.907,39.708 26.083,39.533 26.298,39.533ZM30.757,37.06C31.602,36.743 32.544,37.172 32.861,38.016C33.178,38.86 32.749,39.803 31.905,40.12C31.06,40.436 30.118,40.008 29.801,39.163C29.484,38.319 29.913,37.376 30.757,37.06ZM21.103,39.084C21.319,39.084 21.494,39.259 21.494,39.475C21.494,39.691 21.319,39.866 21.103,39.866C20.887,39.866 20.712,39.691 20.712,39.475C20.712,39.259 20.887,39.084 21.103,39.084ZM39.016,38.762C39.218,38.686 39.443,38.789 39.519,38.991C39.595,39.193 39.492,39.419 39.29,39.495C39.088,39.57 38.862,39.468 38.787,39.266C38.711,39.063 38.813,38.838 39.016,38.762ZM10.85,38.735C11.066,38.735 11.242,38.91 11.242,39.126C11.242,39.342 11.066,39.517 10.85,39.517C10.634,39.517 10.459,39.342 10.459,39.126C10.459,38.91 10.634,38.735 10.85,38.735ZM31.194,38.223C31.396,38.148 31.622,38.25 31.697,38.452C31.773,38.655 31.671,38.88 31.468,38.956C31.266,39.032 31.041,38.929 30.965,38.727C30.889,38.525 30.992,38.299 31.194,38.223ZM16.382,35.639C17.284,35.639 18.016,36.372 18.016,37.273C18.016,38.175 17.284,38.908 16.382,38.908C15.481,38.908 14.748,38.175 14.748,37.273C14.748,36.372 15.481,35.639 16.382,35.639ZM16.382,36.882C16.598,36.882 16.774,37.058 16.774,37.273C16.774,37.489 16.598,37.665 16.382,37.665C16.166,37.665 15.991,37.489 15.991,37.273C15.991,37.058 16.166,36.882 16.382,36.882ZM35.072,34.067C35.917,33.75 36.859,34.178 37.176,35.023C37.493,35.867 37.064,36.81 36.22,37.127C35.375,37.443 34.433,37.015 34.116,36.17C33.799,35.326 34.228,34.383 35.072,34.067ZM7.669,33.357C8.57,33.357 9.303,34.09 9.303,34.992C9.303,35.893 8.57,36.626 7.669,36.626C6.767,36.626 6.035,35.893 6.035,34.992C6.035,34.09 6.767,33.357 7.669,33.357ZM25.005,33.356C25.907,33.356 26.639,34.088 26.639,34.99C26.639,35.892 25.907,36.624 25.005,36.624C24.103,36.624 23.371,35.892 23.371,34.99C23.371,34.088 24.103,33.356 25.005,33.356ZM41.738,33.42C42.582,33.103 43.525,33.532 43.842,34.376C44.158,35.221 43.73,36.163 42.885,36.48C42.041,36.797 41.098,36.368 40.782,35.524C40.465,34.679 40.893,33.737 41.738,33.42ZM35.509,35.23C35.711,35.154 35.937,35.257 36.012,35.459C36.088,35.661 35.986,35.887 35.783,35.963C35.581,36.039 35.356,35.936 35.28,35.734C35.204,35.532 35.307,35.306 35.509,35.23ZM7.669,34.6C7.885,34.6 8.06,34.776 8.06,34.992C8.06,35.207 7.885,35.383 7.669,35.383C7.453,35.383 7.277,35.207 7.277,34.992C7.277,34.776 7.453,34.6 7.669,34.6ZM25.005,34.599C25.221,34.599 25.396,34.774 25.396,34.99C25.396,35.206 25.221,35.381 25.005,35.381C24.789,35.381 24.614,35.206 24.614,34.99C24.614,34.774 24.789,34.599 25.005,34.599ZM42.174,34.584C42.376,34.508 42.602,34.61 42.678,34.813C42.754,35.015 42.651,35.24 42.449,35.316C42.247,35.392 42.021,35.289 41.945,35.087C41.87,34.885 41.972,34.659 42.174,34.584ZM19.988,32.014C20.89,32.014 21.622,32.747 21.622,33.648C21.622,34.55 20.89,35.282 19.988,35.282C19.086,35.282 18.354,34.55 18.354,33.648C18.354,32.747 19.086,32.014 19.988,32.014ZM29.406,32.098C30.25,31.781 31.193,32.209 31.509,33.054C31.826,33.898 31.397,34.841 30.553,35.158C29.709,35.474 28.766,35.046 28.449,34.201C28.133,33.357 28.561,32.414 29.406,32.098ZM12.702,31.962C13.604,31.962 14.336,32.694 14.336,33.596C14.336,34.498 13.604,35.23 12.702,35.23C11.8,35.23 11.068,34.498 11.068,33.596C11.068,32.694 11.8,31.962 12.702,31.962ZM19.988,33.257C20.204,33.257 20.379,33.433 20.379,33.648C20.379,33.864 20.204,34.04 19.988,34.04C19.772,34.04 19.597,33.864 19.597,33.648C19.597,33.433 19.772,33.257 19.988,33.257ZM29.842,33.261C30.044,33.186 30.27,33.288 30.346,33.49C30.421,33.692 30.319,33.918 30.117,33.994C29.915,34.07 29.689,33.967 29.613,33.765C29.537,33.563 29.64,33.337 29.842,33.261ZM12.702,33.205C12.918,33.205 13.093,33.38 13.093,33.596C13.093,33.812 12.918,33.987 12.702,33.987C12.486,33.987 12.311,33.812 12.311,33.596C12.311,33.38 12.486,33.205 12.702,33.205ZM38.007,29.814C38.852,29.497 39.794,29.925 40.111,30.77C40.428,31.614 39.999,32.557 39.155,32.874C38.31,33.19 37.368,32.762 37.051,31.917C36.734,31.073 37.163,30.13 38.007,29.814ZM5.674,28.526C6.575,28.526 7.308,29.258 7.308,30.16C7.308,31.062 6.575,31.794 5.674,31.794C4.772,31.794 4.04,31.062 4.04,30.16C4.04,29.258 4.772,28.526 5.674,28.526ZM43.728,28.62C44.572,28.303 45.515,28.732 45.831,29.576C46.148,30.42 45.719,31.363 44.875,31.68C44.031,31.996 43.088,31.568 42.771,30.723C42.455,29.879 42.883,28.936 43.728,28.62ZM38.444,30.977C38.646,30.901 38.871,31.004 38.947,31.206C39.023,31.408 38.92,31.634 38.718,31.71C38.516,31.786 38.29,31.683 38.215,31.481C38.139,31.279 38.241,31.053 38.444,30.977ZM33.083,28.47C33.927,28.154 34.87,28.582 35.186,29.427C35.503,30.271 35.075,31.214 34.23,31.53C33.386,31.847 32.443,31.419 32.126,30.574C31.81,29.73 32.238,28.787 33.083,28.47ZM16.324,28.35C17.226,28.35 17.958,29.082 17.958,29.984C17.958,30.886 17.226,31.618 16.324,31.618C15.422,31.618 14.69,30.886 14.69,29.984C14.69,29.082 15.422,28.35 16.324,28.35ZM25,18.508C28.583,18.508 31.492,21.417 31.492,25C31.492,28.583 28.583,31.492 25,31.492C21.417,31.492 18.508,28.583 18.508,25C18.508,21.417 21.417,18.508 25,18.508ZM5.674,29.769C5.889,29.769 6.065,29.944 6.065,30.16C6.065,30.376 5.889,30.551 5.674,30.551C5.458,30.551 5.282,30.376 5.282,30.16C5.282,29.944 5.458,29.769 5.674,29.769ZM44.164,29.783C44.366,29.708 44.592,29.81 44.668,30.012C44.743,30.215 44.641,30.44 44.439,30.516C44.237,30.592 44.011,30.489 43.935,30.287C43.859,30.085 43.962,29.859 44.164,29.783ZM10.498,27.243C11.4,27.243 12.132,27.975 12.132,28.877C12.132,29.779 11.4,30.511 10.498,30.511C9.596,30.511 8.864,29.779 8.864,28.877C8.864,27.975 9.596,27.243 10.498,27.243ZM33.519,29.634C33.721,29.558 33.947,29.661 34.023,29.863C34.098,30.065 33.996,30.291 33.794,30.367C33.592,30.443 33.366,30.34 33.29,30.138C33.214,29.936 33.317,29.71 33.519,29.634ZM16.324,29.593C16.54,29.593 16.715,29.768 16.715,29.984C16.715,30.2 16.54,30.375 16.324,30.375C16.108,30.375 15.933,30.2 15.933,29.984C15.933,29.768 16.108,29.593 16.324,29.593ZM10.498,28.486C10.714,28.486 10.889,28.661 10.889,28.877C10.889,29.093 10.714,29.268 10.498,29.268C10.282,29.268 10.107,29.093 10.107,28.877C10.107,28.661 10.282,28.486 10.498,28.486ZM25,21.506C26.928,21.506 28.494,23.072 28.494,25C28.494,26.928 26.928,28.494 25,28.494C23.072,28.494 21.506,26.928 21.506,25C21.506,23.072 23.072,21.506 25,21.506ZM39.375,24.765C40.22,24.448 41.162,24.876 41.479,25.721C41.795,26.565 41.367,27.508 40.523,27.825C39.678,28.141 38.735,27.713 38.419,26.868C38.102,26.024 38.531,25.081 39.375,24.765ZM39.811,25.928C40.014,25.853 40.239,25.955 40.315,26.157C40.391,26.359 40.288,26.585 40.086,26.661C39.884,26.737 39.658,26.634 39.583,26.432C39.507,26.23 39.609,26.004 39.811,25.928ZM44.424,23.471C45.268,23.155 46.211,23.583 46.528,24.428C46.844,25.272 46.416,26.215 45.571,26.531C44.727,26.848 43.784,26.42 43.468,25.575C43.151,24.731 43.58,23.788 44.424,23.471ZM34.426,23.471C35.27,23.155 36.213,23.583 36.529,24.428C36.846,25.272 36.418,26.215 35.573,26.531C34.729,26.848 33.786,26.42 33.469,25.575C33.153,24.731 33.581,23.788 34.426,23.471ZM25,23.372C25.899,23.372 26.628,24.101 26.628,25C26.628,25.899 25.899,26.628 25,26.628C24.101,26.628 23.372,25.899 23.372,25C23.372,24.101 24.101,23.372 25,23.372ZM5.002,23.357C5.904,23.357 6.636,24.089 6.636,24.991C6.636,25.893 5.904,26.625 5.002,26.625C4.1,26.625 3.368,25.893 3.368,24.991C3.368,24.089 4.1,23.357 5.002,23.357ZM14.987,23.351C15.889,23.351 16.621,24.083 16.621,24.985C16.621,25.887 15.889,26.619 14.987,26.619C14.085,26.619 13.353,25.887 13.353,24.985C13.353,24.083 14.085,23.351 14.987,23.351ZM44.86,24.635C45.063,24.559 45.288,24.662 45.364,24.864C45.44,25.066 45.337,25.292 45.135,25.368C44.933,25.443 44.707,25.341 44.631,25.139C44.556,24.937 44.658,24.711 44.86,24.635ZM34.862,24.635C35.064,24.559 35.29,24.662 35.366,24.864C35.442,25.066 35.339,25.292 35.137,25.368C34.935,25.443 34.709,25.341 34.633,25.139C34.557,24.937 34.66,24.711 34.862,24.635ZM5.002,24.6C5.218,24.6 5.393,24.775 5.393,24.991C5.393,25.207 5.218,25.382 5.002,25.382C4.786,25.382 4.611,25.207 4.611,24.991C4.611,24.775 4.786,24.6 5.002,24.6ZM14.987,24.593C15.203,24.593 15.378,24.769 15.378,24.985C15.378,25.201 15.203,25.376 14.987,25.376C14.771,25.376 14.596,25.201 14.596,24.985C14.596,24.769 14.771,24.593 14.987,24.593ZM10.042,22.047C10.944,22.047 11.676,22.779 11.676,23.681C11.676,24.583 10.944,25.315 10.042,25.315C9.14,25.315 8.408,24.583 8.408,23.681C8.408,22.779 9.14,22.047 10.042,22.047ZM10.042,23.29C10.258,23.29 10.433,23.465 10.433,23.681C10.433,23.897 10.258,24.072 10.042,24.072C9.826,24.072 9.651,23.897 9.651,23.681C9.651,23.465 9.826,23.29 10.042,23.29ZM38.903,19.567C39.747,19.25 40.69,19.678 41.006,20.523C41.323,21.367 40.894,22.31 40.05,22.627C39.206,22.943 38.263,22.515 37.946,21.67C37.63,20.826 38.058,19.883 38.903,19.567ZM33.108,18.472C33.952,18.156 34.895,18.584 35.211,19.428C35.528,20.273 35.099,21.216 34.255,21.532C33.411,21.849 32.468,21.42 32.151,20.576C31.835,19.732 32.263,18.789 33.108,18.472ZM16.33,18.35C17.232,18.35 17.964,19.082 17.964,19.984C17.964,20.886 17.232,21.618 16.33,21.618C15.428,21.618 14.696,20.886 14.696,19.984C14.696,19.082 15.428,18.35 16.33,18.35ZM39.339,20.73C39.541,20.654 39.767,20.757 39.843,20.959C39.918,21.161 39.816,21.387 39.614,21.463C39.411,21.539 39.186,21.436 39.11,21.234C39.034,21.032 39.137,20.806 39.339,20.73ZM43.752,18.298C44.597,17.981 45.54,18.41 45.856,19.254C46.173,20.099 45.744,21.041 44.9,21.358C44.056,21.675 43.113,21.246 42.796,20.402C42.48,19.557 42.908,18.615 43.752,18.298ZM5.667,18.167C6.569,18.167 7.301,18.9 7.301,19.801C7.301,20.703 6.569,21.435 5.667,21.435C4.765,21.435 4.033,20.703 4.033,19.801C4.033,18.9 4.765,18.167 5.667,18.167ZM33.544,19.636C33.746,19.56 33.972,19.663 34.048,19.865C34.123,20.067 34.021,20.293 33.819,20.368C33.616,20.444 33.391,20.342 33.315,20.14C33.239,19.937 33.342,19.712 33.544,19.636ZM16.33,19.593C16.546,19.593 16.721,19.768 16.721,19.984C16.721,20.2 16.546,20.375 16.33,20.375C16.114,20.375 15.939,20.2 15.939,19.984C15.939,19.768 16.114,19.593 16.33,19.593ZM11.398,17.007C12.3,17.007 13.032,17.739 13.032,18.641C13.032,19.543 12.3,20.275 11.398,20.275C10.496,20.275 9.764,19.543 9.764,18.641C9.764,17.739 10.496,17.007 11.398,17.007ZM44.189,19.462C44.391,19.386 44.617,19.489 44.692,19.691C44.768,19.893 44.666,20.119 44.464,20.194C44.261,20.27 44.036,20.168 43.96,19.965C43.884,19.763 43.987,19.538 44.189,19.462ZM5.667,19.41C5.883,19.41 6.058,19.585 6.058,19.801C6.058,20.017 5.883,20.193 5.667,20.193C5.451,20.193 5.276,20.017 5.276,19.801C5.276,19.585 5.451,19.41 5.667,19.41ZM11.398,18.25C11.614,18.25 11.789,18.425 11.789,18.641C11.789,18.857 11.614,19.032 11.398,19.032C11.182,19.032 11.007,18.857 11.007,18.641C11.007,18.425 11.182,18.25 11.398,18.25ZM36.714,14.866C37.558,14.549 38.501,14.978 38.818,15.822C39.134,16.667 38.706,17.609 37.861,17.926C37.017,18.243 36.074,17.814 35.758,16.97C35.441,16.125 35.869,15.183 36.714,14.866ZM19.412,14.801C20.256,14.484 21.199,14.913 21.516,15.757C21.832,16.602 21.404,17.544 20.559,17.861C19.715,18.178 18.772,17.749 18.456,16.905C18.139,16.06 18.568,15.118 19.412,14.801ZM29.411,14.795C30.255,14.479 31.198,14.907 31.514,15.751C31.831,16.596 31.403,17.539 30.558,17.855C29.714,18.172 28.771,17.743 28.454,16.899C28.138,16.055 28.566,15.112 29.411,14.795ZM37.15,16.03C37.352,15.954 37.578,16.056 37.654,16.259C37.73,16.461 37.627,16.686 37.425,16.762C37.223,16.838 36.997,16.735 36.921,16.533C36.846,16.331 36.948,16.105 37.15,16.03ZM19.848,15.965C20.051,15.889 20.276,15.991 20.352,16.193C20.428,16.396 20.325,16.621 20.123,16.697C19.921,16.773 19.695,16.67 19.619,16.468C19.544,16.266 19.646,16.04 19.848,15.965ZM29.847,15.959C30.049,15.883 30.275,15.986 30.351,16.188C30.426,16.39 30.324,16.616 30.122,16.692C29.92,16.767 29.694,16.665 29.618,16.463C29.542,16.26 29.645,16.035 29.847,15.959ZM24.996,13.369C25.898,13.369 26.63,14.101 26.63,15.003C26.63,15.905 25.898,16.637 24.996,16.637C24.094,16.637 23.362,15.905 23.362,15.003C23.362,14.101 24.094,13.369 24.996,13.369ZM41.75,13.458C42.594,13.141 43.537,13.57 43.854,14.414C44.17,15.259 43.742,16.201 42.897,16.518C42.053,16.835 41.11,16.406 40.794,15.562C40.477,14.717 40.906,13.775 41.75,13.458ZM7.682,13.349C8.584,13.349 9.316,14.081 9.316,14.983C9.316,15.885 8.584,16.617 7.682,16.617C6.78,16.617 6.048,15.885 6.048,14.983C6.048,14.081 6.78,13.349 7.682,13.349ZM14.381,12.743C15.283,12.743 16.015,13.475 16.015,14.377C16.015,15.279 15.283,16.011 14.381,16.011C13.479,16.011 12.747,15.279 12.747,14.377C12.747,13.475 13.479,12.743 14.381,12.743ZM24.996,14.612C25.212,14.612 25.387,14.787 25.387,15.003C25.387,15.219 25.212,15.394 24.996,15.394C24.78,15.394 24.604,15.219 24.604,15.003C24.604,14.787 24.78,14.612 24.996,14.612ZM42.186,14.622C42.389,14.546 42.614,14.649 42.69,14.851C42.766,15.053 42.663,15.279 42.461,15.354C42.259,15.43 42.033,15.328 41.957,15.126C41.882,14.923 41.984,14.698 42.186,14.622ZM7.682,14.592C7.898,14.592 8.073,14.767 8.073,14.983C8.073,15.199 7.898,15.374 7.682,15.374C7.466,15.374 7.29,15.199 7.29,14.983C7.29,14.767 7.466,14.592 7.682,14.592ZM14.381,13.986C14.597,13.986 14.772,14.161 14.772,14.377C14.772,14.593 14.597,14.768 14.381,14.768C14.165,14.768 13.99,14.593 13.99,14.377C13.99,14.161 14.165,13.986 14.381,13.986ZM33.027,11.191C33.872,10.875 34.814,11.303 35.131,12.148C35.448,12.992 35.019,13.935 34.175,14.251C33.33,14.568 32.388,14.14 32.071,13.295C31.754,12.451 32.183,11.508 33.027,11.191ZM33.464,12.355C33.666,12.279 33.891,12.382 33.967,12.584C34.043,12.786 33.94,13.012 33.738,13.088C33.536,13.164 33.31,13.061 33.235,12.859C33.159,12.657 33.261,12.431 33.464,12.355ZM18.075,9.865C18.919,9.549 19.862,9.977 20.178,10.822C20.495,11.666 20.066,12.609 19.222,12.925C18.378,13.242 17.435,12.813 17.118,11.969C16.802,11.125 17.23,10.182 18.075,9.865ZM38.566,9.32C39.411,9.003 40.354,9.431 40.67,10.276C40.987,11.12 40.558,12.063 39.714,12.38C38.87,12.696 37.927,12.268 37.61,11.423C37.294,10.579 37.722,9.636 38.566,9.32ZM10.847,9.209C11.749,9.209 12.481,9.941 12.481,10.843C12.481,11.745 11.749,12.477 10.847,12.477C9.945,12.477 9.213,11.745 9.213,10.843C9.213,9.941 9.945,9.209 10.847,9.209ZM28.29,8.976C29.134,8.659 30.077,9.088 30.394,9.932C30.71,10.776 30.282,11.719 29.438,12.036C28.593,12.352 27.65,11.924 27.334,11.079C27.017,10.235 27.446,9.292 28.29,8.976ZM18.511,11.029C18.713,10.953 18.939,11.056 19.015,11.258C19.09,11.46 18.988,11.686 18.786,11.762C18.583,11.837 18.358,11.735 18.282,11.533C18.206,11.33 18.309,11.105 18.511,11.029ZM23.684,8.416C24.586,8.416 25.318,9.148 25.318,10.05C25.318,10.951 24.586,11.684 23.684,11.684C22.782,11.684 22.05,10.951 22.05,10.05C22.05,9.148 22.782,8.416 23.684,8.416ZM39.003,10.483C39.205,10.407 39.431,10.51 39.506,10.712C39.582,10.914 39.48,11.14 39.278,11.216C39.075,11.292 38.85,11.189 38.774,10.987C38.698,10.785 38.801,10.559 39.003,10.483ZM10.847,10.452C11.063,10.452 11.238,10.627 11.238,10.843C11.238,11.059 11.063,11.234 10.847,11.234C10.631,11.234 10.456,11.059 10.456,10.843C10.456,10.627 10.631,10.452 10.847,10.452ZM28.726,10.139C28.929,10.064 29.154,10.166 29.23,10.368C29.306,10.571 29.203,10.796 29.001,10.872C28.799,10.948 28.573,10.845 28.497,10.643C28.422,10.441 28.524,10.215 28.726,10.139ZM23.684,9.658C23.9,9.658 24.075,9.834 24.075,10.05C24.075,10.266 23.9,10.441 23.684,10.441C23.468,10.441 23.293,10.266 23.293,10.05C23.293,9.834 23.468,9.658 23.684,9.658ZM15,6.034C15.902,6.034 16.634,6.766 16.634,7.668C16.634,8.57 15.902,9.302 15,9.302C14.098,9.302 13.366,8.57 13.366,7.668C13.366,6.766 14.098,6.034 15,6.034ZM34.428,6.136C35.272,5.819 36.215,6.248 36.532,7.092C36.848,7.937 36.42,8.879 35.575,9.196C34.731,9.513 33.788,9.084 33.472,8.24C33.155,7.395 33.583,6.453 34.428,6.136ZM15,7.277C15.216,7.277 15.391,7.452 15.391,7.668C15.391,7.884 15.216,8.059 15,8.059C14.784,8.059 14.609,7.884 14.609,7.668C14.609,7.452 14.784,7.277 15,7.277ZM34.864,7.3C35.066,7.224 35.292,7.327 35.368,7.529C35.444,7.731 35.341,7.957 35.139,8.032C34.937,8.108 34.711,8.006 34.635,7.803C34.56,7.601 34.662,7.376 34.864,7.3ZM29.589,4.15C30.433,3.833 31.376,4.261 31.693,5.106C32.009,5.95 31.581,6.893 30.736,7.21C29.892,7.526 28.949,7.098 28.633,6.253C28.316,5.409 28.744,4.466 29.589,4.15ZM19.238,4.139C20.082,3.822 21.025,4.25 21.341,5.095C21.658,5.939 21.229,6.882 20.385,7.199C19.541,7.515 18.598,7.087 18.281,6.242C17.965,5.398 18.393,4.455 19.238,4.139ZM24.988,3.354C25.889,3.354 26.622,4.086 26.622,4.988C26.622,5.89 25.889,6.622 24.988,6.622C24.086,6.622 23.354,5.89 23.354,4.988C23.354,4.086 24.086,3.354 24.988,3.354ZM30.025,5.313C30.227,5.237 30.453,5.34 30.529,5.542C30.605,5.744 30.502,5.97 30.3,6.046C30.098,6.122 29.872,6.019 29.796,5.817C29.721,5.615 29.823,5.389 30.025,5.313ZM19.674,5.302C19.876,5.227 20.102,5.329 20.178,5.531C20.253,5.733 20.151,5.959 19.949,6.035C19.746,6.111 19.521,6.008 19.445,5.806C19.369,5.604 19.472,5.378 19.674,5.302ZM24.988,4.597C25.204,4.597 25.379,4.772 25.379,4.988C25.379,5.204 25.204,5.379 24.988,5.379C24.772,5.379 24.596,5.204 24.596,4.988C24.596,4.772 24.772,4.597 24.988,4.597Z" style="fill:rgb(51,51,51);"/>
    </g>
</svg>
