<?xml version="1.0" encoding="UTF-8" standalone="no"?><!DOCTYPE svg PUBLIC "-//W3C//DTD SVG 1.1//EN" "http://www.w3.org/Graphics/SVG/1.1/DTD/svg11.dtd"><svg width="45px" height="45px" viewBox="0 0 45 45" version="1.1" xmlns="http://www.w3.org/2000/svg" xmlns:xlink="http://www.w3.org/1999/xlink" xml:space="preserve" style="fill-rule:evenodd;clip-rule:evenodd;stroke-linejoin:round;stroke-miterlimit:1.41421;"><path d="M5.956,26.145c0,0 -5.956,-3.853 -5.956,-6.406c0,-5.277 10.082,-9.561 22.5,-9.561c12.418,0 22.5,4.284 22.5,9.561c0,2.553 -5.954,6.47 -5.954,6.47c0,0 -0.011,1.128 -0.051,1.426c-0.717,5.369 -7.909,8.347 -16.495,8.347c-8.592,0 -15.799,-3.425 -16.508,-8.427c-0.039,-0.273 -0.036,-1.41 -0.036,-1.41Zm9.4,2.884c2.199,0.235 4.409,0.364 6.621,0.383c3.052,0.026 6.104,-0.158 9.134,-0.527c1.427,-0.174 2.848,-0.389 4.264,-0.64c0.764,-0.136 1.526,-0.283 2.286,-0.438c0.256,-0.053 0.511,-0.106 0.767,-0.161c0.016,-0.005 0.033,-0.009 0.049,-0.016c0.064,-0.03 0.111,-0.088 0.127,-0.157c0.004,-0.017 0.004,-0.034 0.006,-0.052l0,-2.188c-0.002,-0.017 -0.002,-0.035 -0.006,-0.052c-0.012,-0.051 -0.041,-0.097 -0.082,-0.129c-0.014,-0.011 -0.03,-0.019 -0.045,-0.028l-0.049,-0.016c-0.941,-0.201 -1.885,-0.392 -2.832,-0.566c-1.925,-0.353 -3.862,-0.645 -5.808,-0.862c-1.648,-0.184 -3.303,-0.315 -4.961,-0.387c-0.902,-0.04 -1.804,-0.06 -2.707,-0.065c-0.245,-0.001 -0.491,0 -0.737,0.001c-0.818,0.007 -1.636,0.026 -2.453,0.062c-1.558,0.067 -3.114,0.19 -4.664,0.368c-1.573,0.18 -3.138,0.416 -4.694,0.705c-0.834,0.156 -1.665,0.327 -2.493,0.511c-0.167,0.037 -0.334,0.075 -0.501,0.113c-0.016,0.006 -0.033,0.01 -0.049,0.017c-0.062,0.03 -0.108,0.088 -0.124,0.156c-0.004,0.017 -0.004,0.034 -0.006,0.051l0,2.189c0.002,0.017 0.002,0.034 0.006,0.051c0.012,0.05 0.04,0.096 0.08,0.128c0.014,0.011 0.029,0.019 0.044,0.028l0.048,0.017c0.757,0.175 1.515,0.342 2.276,0.496c0.783,0.158 1.569,0.304 2.357,0.436c0.856,4.312 3.365,5.301 7.834,6.235c-2.065,-2.11 -3.23,-2.841 -3.688,-5.663c-0.276,-0.027 -0.552,-0.054 -0.827,-0.084c-0.382,-0.043 -0.762,-0.09 -1.142,-0.142c-0.522,-0.072 -1.042,-0.151 -1.562,-0.237c-0.205,-0.034 -0.409,-0.069 -0.614,-0.105l-0.088,-0.864l0.497,0.085c0.764,0.129 1.53,0.247 2.298,0.344c0.456,0.058 0.912,0.106 1.369,0.151l0.069,0.852Zm-0.164,-4.725c1.331,-0.134 2.665,-0.228 4.002,-0.282c0.812,-0.032 1.624,-0.048 2.436,-0.052c0.163,0 0.326,0 0.488,0.001c0.815,0.004 1.63,0.021 2.444,0.054c1.563,0.062 3.124,0.177 4.679,0.341c1.76,0.185 3.513,0.431 5.257,0.731c0.938,0.161 1.872,0.338 2.804,0.527c0.283,0.058 0.565,0.117 0.848,0.177l0,1.052l-0.073,0.015c-0.758,0.159 -1.517,0.311 -2.279,0.45c-1.41,0.259 -2.826,0.483 -4.247,0.665c-3.011,0.388 -6.046,0.593 -9.082,0.589c-2.399,-0.003 -4.798,-0.136 -7.183,-0.396c-0.18,-1.352 -0.205,-2.391 -0.094,-3.872Zm-4.32,0.58c0.008,1.101 0.09,1.75 0.25,2.709c-0.561,-0.095 -1.12,-0.198 -1.678,-0.306c-0.671,-0.131 -1.339,-0.272 -2.006,-0.42c-0.193,-0.043 -0.386,-0.087 -0.579,-0.131l0,-1.058l0.071,-0.016c0.824,-0.185 1.65,-0.359 2.479,-0.516c0.487,-0.093 0.974,-0.18 1.463,-0.262Zm18.497,-8.062c0.284,0 0.559,-0.098 0.778,-0.278l0.546,-0.446l-1.541,0l0,-0.177c0,0 2.042,0 2.309,0c0.296,0 0.583,-0.103 0.812,-0.29c0.456,-0.373 1.19,-0.973 1.19,-0.973c0,0 -5.519,0 -7.388,0c-0.391,0 -0.768,0.15 -1.052,0.42l-1.496,1.421c-0.312,-0.144 -0.66,-0.224 -1.027,-0.224c-0.367,0 -0.715,0.08 -1.027,0.224l-1.496,-1.421c-0.284,-0.27 -0.661,-0.42 -1.052,-0.42c-1.869,0 -7.388,0 -7.388,0c0,0 0.734,0.6 1.19,0.973c0.229,0.187 0.516,0.29 0.812,0.29c0.267,0 2.308,0 2.308,0l0,0.177l-1.54,0l0.546,0.446c0.219,0.18 0.494,0.278 0.778,0.278l2.292,0l0,0.178l-1.563,0l0.536,0.438c0.181,0.148 0.408,0.229 0.642,0.229l2.745,0l0,0.002c-0.156,0.322 -0.243,0.684 -0.243,1.066c0,1.357 1.102,2.46 2.46,2.46c1.358,0 2.46,-1.103 2.46,-2.46c0,-0.383 -0.087,-0.745 -0.243,-1.068l2.745,0c0.234,0 0.461,-0.081 0.642,-0.229l0.536,-0.438l-1.563,0l0,-0.178l2.292,0Zm-6.869,0.126l0.401,1.234l1.298,0l-1.05,0.764l0.401,1.234l-1.05,-0.763l-1.05,0.763l0.401,-1.234l-1.05,-0.764l1.298,0l0.401,-1.234Z"/></svg>