<?xml version="1.0" encoding="UTF-8" standalone="no"?>
<!DOCTYPE svg PUBLIC "-//W3C//DTD SVG 1.1//EN" "http://www.w3.org/Graphics/SVG/1.1/DTD/svg11.dtd">
<svg width="45px" height="45px" viewBox="0 0 45 45" version="1.1" xmlns="http://www.w3.org/2000/svg" xmlns:xlink="http://www.w3.org/1999/xlink" xml:space="preserve" style="fill-rule:evenodd;clip-rule:evenodd;stroke-linejoin:round;stroke-miterlimit:1.41421;">
    <path d="M20.936,26.55C19.524,28.481 17.34,30.989 14.61,33.908C8.927,39.984 3.021,45.557 1.916,44.524C0.1,42.825 2.687,38.666 8.37,32.591C11.68,29.051 15.557,25.864 18.435,24.022C18.661,24.631 19.029,25.196 19.535,25.67C19.954,26.062 20.431,26.355 20.936,26.55ZM23.917,26.603C24.531,26.392 25.106,26.04 25.592,25.546C25.995,25.137 26.301,24.668 26.508,24.168C28.402,25.629 30.853,27.878 33.701,30.682C39.628,36.519 45.047,42.568 43.986,43.645C42.241,45.417 38.15,42.724 32.223,36.885C28.77,33.486 25.684,29.528 23.917,26.603ZM22.498,19.074L22.55,19.074L22.633,19.076L22.715,19.08L22.723,19.081C23.078,19.104 23.43,19.182 23.766,19.315L23.839,19.345L23.916,19.378L23.992,19.414L24.071,19.454L24.142,19.491C24.411,19.638 24.665,19.824 24.894,20.049C25.109,20.258 25.29,20.49 25.438,20.736L25.479,20.806L25.52,20.88L25.561,20.958L25.598,21.033L25.631,21.105C25.755,21.385 25.84,21.678 25.886,21.975L25.887,21.983L25.898,22.064L25.908,22.146L25.915,22.228L25.921,22.304L25.924,22.386L25.926,22.468L25.926,22.472L25.926,22.474L25.926,22.498L25.926,22.55L25.926,22.555L25.926,22.556L25.925,22.573L25.924,22.633L25.923,22.638L25.923,22.639L25.923,22.648L25.92,22.715L25.919,22.721L25.919,22.721L25.919,22.723C25.896,23.078 25.818,23.43 25.685,23.766L25.685,23.766L25.685,23.766L25.655,23.839L25.654,23.842L25.653,23.843L25.648,23.856L25.622,23.916L25.62,23.918L25.62,23.92L25.607,23.947L25.586,23.992L25.585,23.994L25.584,23.996L25.561,24.041L25.548,24.067L25.548,24.068L25.546,24.071L25.512,24.136L25.509,24.142L25.509,24.142C25.362,24.411 25.176,24.665 24.951,24.894C24.742,25.109 24.51,25.29 24.264,25.438L24.264,25.439L24.251,25.446L24.194,25.479L24.192,25.481L24.191,25.481L24.161,25.498L24.12,25.52L24.119,25.521L24.117,25.522L24.072,25.545L24.046,25.559L24.045,25.559L24.042,25.561L23.984,25.589L23.971,25.596L23.97,25.596L23.967,25.598L23.898,25.629L23.895,25.631L23.895,25.631C23.615,25.755 23.322,25.84 23.025,25.886L23.023,25.886L23.023,25.886L23.017,25.887L22.949,25.897L22.942,25.898L22.941,25.898L22.936,25.898L22.874,25.906L22.86,25.907L22.859,25.907L22.854,25.908L22.8,25.913L22.778,25.915L22.776,25.915L22.772,25.915L22.725,25.919L22.696,25.921L22.694,25.921L22.69,25.921L22.651,25.923L22.614,25.924L22.611,25.924L22.608,25.925L22.576,25.925L22.532,25.926L22.528,25.926L22.526,25.926L22.502,25.926L22.45,25.926L22.445,25.926L22.444,25.926L22.427,25.925L22.367,25.924L22.362,25.923L22.361,25.923L22.352,25.923L22.285,25.92L22.279,25.919L22.279,25.919L22.277,25.919C21.922,25.896 21.57,25.818 21.234,25.685L21.234,25.685L21.234,25.685L21.161,25.655L21.158,25.654L21.157,25.653L21.144,25.648L21.084,25.622L21.082,25.62L21.08,25.62L21.053,25.607L21.008,25.586L21.006,25.585L21.004,25.584L20.959,25.561L20.933,25.548L20.932,25.548L20.929,25.546L20.864,25.512L20.858,25.509L20.858,25.509C20.589,25.362 20.335,25.176 20.106,24.951C19.891,24.742 19.71,24.51 19.562,24.264L19.561,24.264L19.554,24.251L19.521,24.194L19.519,24.192L19.519,24.191L19.502,24.161L19.48,24.12L19.479,24.119L19.478,24.117L19.455,24.072L19.441,24.046L19.441,24.045L19.439,24.042L19.411,23.984L19.404,23.971L19.404,23.97L19.402,23.967L19.371,23.898L19.369,23.895L19.369,23.895C19.245,23.615 19.16,23.322 19.114,23.025L19.114,23.023L19.114,23.023L19.113,23.017L19.103,22.949L19.102,22.942L19.102,22.941L19.102,22.936L19.094,22.874L19.093,22.86L19.093,22.859L19.092,22.854L19.087,22.8L19.085,22.778L19.085,22.776L19.085,22.772L19.081,22.725L19.079,22.696L19.079,22.694L19.079,22.69L19.077,22.651L19.076,22.614L19.076,22.611L19.075,22.608L19.075,22.576L19.074,22.532L19.074,22.528L19.074,22.526L19.074,22.502L19.074,22.45L19.074,22.445L19.074,22.444L19.075,22.427L19.076,22.367L19.077,22.362L19.077,22.361L19.077,22.352L19.08,22.285L19.081,22.279L19.081,22.279L19.081,22.277C19.104,21.922 19.182,21.57 19.315,21.234L19.315,21.234L19.315,21.234L19.345,21.161L19.346,21.158L19.347,21.157L19.352,21.144L19.378,21.084L19.38,21.082L19.38,21.08L19.393,21.053L19.414,21.008L19.415,21.006L19.416,21.004L19.439,20.959L19.452,20.933L19.452,20.932L19.454,20.929L19.488,20.864L19.491,20.858L19.491,20.858C19.638,20.589 19.824,20.335 20.049,20.106C20.258,19.891 20.49,19.71 20.736,19.562L20.736,19.561L20.749,19.554L20.806,19.521L20.808,19.519L20.809,19.519L20.839,19.502L20.88,19.48L20.881,19.479L20.883,19.478L20.928,19.455L20.954,19.441L20.955,19.441L20.958,19.439L21.016,19.411L21.029,19.404L21.03,19.404L21.033,19.402L21.102,19.371L21.105,19.369L21.105,19.369C21.385,19.245 21.678,19.16 21.975,19.114L21.977,19.114L21.977,19.114L21.983,19.113L22.051,19.103L22.058,19.102L22.059,19.102L22.064,19.102L22.126,19.094L22.14,19.093L22.141,19.093L22.146,19.092L22.2,19.087L22.222,19.085L22.224,19.085L22.228,19.085L22.275,19.081L22.304,19.079L22.306,19.079L22.31,19.079L22.349,19.077L22.386,19.076L22.389,19.076L22.392,19.075L22.424,19.075L22.468,19.074L22.472,19.074L22.474,19.074L22.498,19.074ZM26.565,20.978C26.339,20.369 25.971,19.804 25.465,19.33C25.046,18.938 24.569,18.645 24.064,18.45C25.476,16.519 27.66,14.011 30.39,11.092C36.073,5.016 41.979,-0.557 43.084,0.476C44.9,2.175 42.313,6.334 36.63,12.409C33.32,15.949 29.443,19.136 26.565,20.978ZM18.492,20.832C16.598,19.371 14.147,17.122 11.299,14.318C5.372,8.481 -0.047,2.432 1.014,1.355C2.759,-0.417 6.85,2.276 12.777,8.115C16.23,11.514 19.316,15.472 21.083,18.397C20.469,18.608 19.894,18.96 19.408,19.454C19.005,19.863 18.699,20.332 18.492,20.832Z" style="fill:#d11d1d;"/>
</svg>
