<?xml version="1.0" encoding="UTF-8" standalone="no"?>
<!DOCTYPE svg PUBLIC "-//W3C//DTD SVG 1.1//EN" "http://www.w3.org/Graphics/SVG/1.1/DTD/svg11.dtd">
<svg width="45px" height="45px" viewBox="0 0 45 45" version="1.1" xmlns="http://www.w3.org/2000/svg" xmlns:xlink="http://www.w3.org/1999/xlink" xml:space="preserve" style="fill-rule:evenodd;clip-rule:evenodd;stroke-linejoin:round;stroke-miterlimit:1.41421;">
    <path d="M19.964,24.753C20.3,25.133 20.727,25.442 21.229,25.645C21.645,25.813 22.075,25.893 22.498,25.893C22.012,27.698 21.124,30.141 19.954,33.037C17.519,39.065 14.779,44.79 13.683,44.347C11.881,43.619 12.598,39.859 15.034,33.831C16.452,30.319 18.383,26.905 19.964,24.753ZM23.503,20.017C24.874,20.571 25.537,22.133 24.983,23.503C24.429,24.874 22.867,25.537 21.497,24.983C20.126,24.429 19.463,22.867 20.017,21.497C20.571,20.126 22.133,19.463 23.503,20.017ZM22.502,19.107C22.988,17.302 23.876,14.859 25.046,11.963C27.481,5.935 30.221,0.21 31.317,0.653C33.119,1.381 32.402,5.141 29.966,11.169C28.548,14.681 26.617,18.095 25.036,20.247C24.7,19.867 24.273,19.558 23.771,19.355C23.355,19.187 22.925,19.107 22.502,19.107Z" style="fill:#d11d1d;"/>
</svg>
