<?xml version="1.0" encoding="UTF-8" standalone="no"?>
<!DOCTYPE svg PUBLIC "-//W3C//DTD SVG 1.1//EN" "http://www.w3.org/Graphics/SVG/1.1/DTD/svg11.dtd">
<svg width="45px" height="45px" viewBox="0 0 45 45" version="1.1" xmlns="http://www.w3.org/2000/svg" xmlns:xlink="http://www.w3.org/1999/xlink" xml:space="preserve" style="fill-rule:evenodd;clip-rule:evenodd;stroke-linejoin:round;stroke-miterlimit:1.41421;">
    <path d="M26.256,28.07C28.143,28.873 30.659,30.211 33.626,31.924C39.8,35.488 45.598,39.337 44.95,40.459C43.885,42.305 39.911,40.952 33.737,37.388C30.14,35.311 26.727,32.694 24.632,30.648C25.096,30.341 25.497,29.925 25.794,29.411C26.04,28.984 26.192,28.53 26.256,28.07ZM20.28,30.481C18.642,31.713 16.225,33.224 13.259,34.937C7.085,38.501 0.852,41.599 0.204,40.476C-0.861,38.631 2.297,35.866 8.471,32.301C12.067,30.225 16.041,28.577 18.86,27.786C18.894,28.341 19.054,28.897 19.351,29.411C19.597,29.837 19.915,30.196 20.28,30.481ZM22.572,24.614C22.826,24.614 23.082,24.646 23.333,24.713C23.583,24.781 23.821,24.88 24.041,25.007C24.261,25.134 24.466,25.29 24.649,25.474C24.833,25.657 24.989,25.862 25.116,26.082C25.243,26.302 25.342,26.54 25.41,26.79C25.477,27.041 25.509,27.297 25.509,27.551C25.509,27.805 25.477,28.06 25.41,28.311C25.342,28.562 25.243,28.799 25.116,29.019C24.989,29.239 24.833,29.444 24.649,29.628C24.466,29.811 24.261,29.967 24.041,30.094C23.821,30.221 23.583,30.321 23.333,30.388C23.082,30.455 22.826,30.488 22.572,30.487C22.318,30.488 22.063,30.455 21.812,30.388C21.561,30.321 21.324,30.221 21.104,30.094C20.884,29.967 20.679,29.811 20.495,29.628C20.312,29.444 20.156,29.239 20.029,29.019C19.902,28.799 19.802,28.562 19.735,28.311C19.668,28.06 19.635,27.805 19.636,27.551C19.635,27.297 19.668,27.041 19.735,26.79C19.802,26.54 19.902,26.302 20.029,26.082C20.156,25.862 20.312,25.657 20.495,25.474C20.679,25.29 20.884,25.134 21.104,25.007C21.324,24.88 21.561,24.781 21.812,24.713C22.063,24.646 22.318,24.614 22.572,24.614ZM21.181,24.101C20.933,22.065 20.833,19.217 20.833,15.792C20.833,8.662 21.266,1.716 22.563,1.716C24.694,1.716 25.509,5.834 25.509,12.963C25.509,17.116 24.949,21.381 24.225,24.218C23.727,23.97 23.166,23.831 22.572,23.831C22.08,23.831 21.611,23.927 21.181,24.101Z" style="fill:#d11d1d;"/>
</svg>
