<?xml version="1.0" encoding="UTF-8" standalone="no"?><!DOCTYPE svg PUBLIC "-//W3C//DTD SVG 1.1//EN" "http://www.w3.org/Graphics/SVG/1.1/DTD/svg11.dtd"><svg width="45px" height="45px" viewBox="0 0 45 45" version="1.1" xmlns="http://www.w3.org/2000/svg" xmlns:xlink="http://www.w3.org/1999/xlink" xml:space="preserve" style="fill-rule:evenodd;clip-rule:evenodd;stroke-linejoin:round;stroke-miterlimit:1.41421;"><path d="M45,33l-45,0c0,0 3.916,-16.445 4.817,-20.23c0.107,-0.451 0.511,-0.77 0.975,-0.77c4.697,0 28.865,0 33.455,0c0.441,0 0.825,0.303 0.927,0.733l4.826,20.267Zm-22.5,-13.075l1.823,-4.876l2.009,0l-3.832,10.199l0,-5.323l-3.832,10.085l2.043,0l1.789,-4.762l0,5.752l20.234,0c0,0 -3.452,-12.972 -4.325,-16.253c-0.117,-0.44 -0.516,-0.747 -0.972,-0.747c-3.161,0 -14.937,0 -14.937,0l0,5.925Zm-7.825,-4.688l-2.25,0l-4.105,3.661l0,3.106l3.582,-2.89l0,10.649l2.773,0l0,-14.526Zm22.16,14.526l-9.72,0c0.105,-0.973 0.421,-1.896 0.947,-2.768c0.526,-0.872 1.566,-2.028 3.118,-3.469c1.25,-1.164 2.017,-1.954 2.3,-2.368c0.381,-0.573 0.572,-1.138 0.572,-1.698c0,-0.618 -0.166,-1.093 -0.498,-1.426c-0.332,-0.332 -0.791,-0.498 -1.377,-0.498c-0.579,0 -1.039,0.174 -1.381,0.523c-0.343,0.349 -0.54,0.928 -0.593,1.737l-2.763,-0.276c0.165,-1.527 0.681,-2.622 1.55,-3.287c0.868,-0.664 1.954,-0.996 3.256,-0.996c1.428,0 2.55,0.385 3.365,1.154c0.816,0.77 1.224,1.727 1.224,2.872c0,0.651 -0.117,1.272 -0.35,1.86c-0.234,0.589 -0.604,1.206 -1.11,1.851c-0.336,0.427 -0.941,1.042 -1.816,1.845c-0.875,0.803 -1.43,1.336 -1.663,1.599c-0.234,0.263 -0.423,0.519 -0.568,0.77l5.507,0l0,2.575Z"/></svg>