<?xml version="1.0" encoding="UTF-8" standalone="no"?><!DOCTYPE svg PUBLIC "-//W3C//DTD SVG 1.1//EN" "http://www.w3.org/Graphics/SVG/1.1/DTD/svg11.dtd"><svg width="45px" height="45px" viewBox="0 0 45 45" version="1.1" xmlns="http://www.w3.org/2000/svg" xmlns:xlink="http://www.w3.org/1999/xlink" xml:space="preserve" style="fill-rule:evenodd;clip-rule:evenodd;stroke-linejoin:round;stroke-miterlimit:1.41421;"><path d="M31.886,0.876l0.805,-0.359l8.848,2.809l2.317,4.072c0.261,0.821 -0.124,1.455 -0.558,1.941c-0.502,0.562 -1.323,1.162 -2.396,1.717c-1.14,0.379 -2.272,0.788 -3.381,1.252c-0.853,0.357 -1.692,0.746 -2.507,1.184c-0.343,0.184 -1.313,0.809 -1.313,0.812l-2.344,1.31c-1.244,-0.288 -2.408,-0.263 -3.37,0.561c-2.168,2.295 -3.115,4.943 -3.407,7.782c-0.481,1.964 -1.339,3.621 -2.281,5.209c-0.239,0.595 -0.268,1.121 0.046,1.534l2.213,0c0.799,-0.013 1.216,0.496 1.192,1.58l0,2.895l3.07,0c1.081,-0.005 1.55,0.613 1.535,1.819l0,2.621l1.558,0c0.839,0.064 1.276,0.569 1.251,1.582l0,3.803l-32.104,0l0,-4.164c-0.018,-0.856 0.393,-1.201 1.075,-1.221l1.733,0l0,-2.967c0.011,-1.001 0.381,-1.47 1.067,-1.473l3.541,0l0,-2.944c-0.049,-1.358 0.458,-1.51 1.543,-1.531l1.848,0l8.255,-22.178c1.407,-3.548 4.179,-5.409 8.005,-5.969l0.082,-0.036c0.057,0.031 0.114,0.061 0.172,0.09c0.093,0.046 0.186,0.088 0.282,0.126c0.442,0.175 0.934,0.273 1.407,0.177c0.068,-0.014 0.358,-0.111 0.432,-0.149c0.063,-0.031 0.429,-0.266 0.541,-0.361c0.164,-0.139 0.311,-0.297 0.435,-0.473c0.181,-0.257 0.31,-0.55 0.376,-0.858c0.008,-0.041 0.029,-0.17 0.032,-0.193Zm7.769,10.932c-0.984,0.777 -1.44,2.116 -1.572,3.5l0.098,2.482l-4.191,-3.356c0.297,-0.184 0.599,-0.362 0.904,-0.531c0.814,-0.451 1.655,-0.851 2.51,-1.216c0.741,-0.317 1.493,-0.607 2.251,-0.879Zm-11.332,-9.576c-0.036,-0.881 0.14,-1.655 1.019,-2.05c0.896,-0.402 1.899,-0.115 2.244,0.64c-0.008,0.082 -0.023,0.163 -0.043,0.243c-0.076,0.309 -0.226,0.598 -0.432,0.84c-0.131,0.155 -0.285,0.291 -0.452,0.407c-0.061,0.043 -0.319,0.193 -0.387,0.221c-0.138,0.057 -0.284,0.091 -0.432,0.104c-0.242,0.022 -0.486,-0.01 -0.719,-0.071c-0.28,-0.075 -0.547,-0.191 -0.798,-0.334Z" style="fill:#333;"/></svg>