<?xml version="1.0" encoding="UTF-8" standalone="no"?>
<!DOCTYPE svg PUBLIC "-//W3C//DTD SVG 1.1//EN" "http://www.w3.org/Graphics/SVG/1.1/DTD/svg11.dtd">
<svg width="45px" height="45px" viewBox="0 0 45 45" version="1.1" xmlns="http://www.w3.org/2000/svg" xmlns:xlink="http://www.w3.org/1999/xlink" xml:space="preserve" style="fill-rule:evenodd;clip-rule:evenodd;stroke-linejoin:round;stroke-miterlimit:1.41421;">
    <path d="M0.092,21.984C0.033,21.984 -0.002,21.955 0,21.88L0,20.832C0.002,20.767 0.038,20.734 0.106,20.734L1.233,20.734C1.628,15.904 4.38,14.277 9.58,14.277C11.409,14.277 13.408,14.298 15.159,14.609C15.227,14.331 15.452,14.271 15.723,14.277L29.277,14.277C29.548,14.271 29.773,14.331 29.841,14.609C31.592,14.298 33.591,14.277 35.42,14.277C40.62,14.277 43.372,15.904 43.767,20.734L44.894,20.734C44.962,20.734 44.998,20.767 45,20.832L45,21.88C45.002,21.955 44.967,21.984 44.908,21.984L44.513,21.984C44.448,21.984 44.406,21.959 44.408,21.882L44.408,21.484C44.408,21.437 44.387,21.415 44.349,21.413L43.806,21.413C43.813,21.61 43.816,21.812 43.816,22.018C43.816,26.652 41.133,30.723 36.499,30.723C31.943,30.723 25.285,23.918 25.062,19.285C25.035,19.087 25.001,17.598 24.91,17.372C24.773,17.027 24.426,16.823 24.084,16.691C24.031,16.671 23.978,16.652 23.924,16.634C23.849,16.61 23.774,16.588 23.698,16.569C23.604,16.545 23.509,16.525 23.414,16.508C23.289,16.485 23.164,16.468 23.039,16.455C22.871,16.438 22.702,16.429 22.534,16.43C22.517,16.43 22.483,16.43 22.466,16.43C22.298,16.429 22.129,16.438 21.961,16.455C21.836,16.468 21.711,16.485 21.586,16.508C21.491,16.525 21.396,16.545 21.302,16.569C21.226,16.588 21.151,16.61 21.076,16.634C21.022,16.652 20.969,16.671 20.916,16.691C20.574,16.823 20.227,17.027 20.09,17.372C19.999,17.598 19.965,19.087 19.938,19.285C19.715,23.918 13.057,30.723 8.501,30.723C3.867,30.723 1.184,26.652 1.184,22.018C1.184,21.812 1.187,21.61 1.194,21.413L0.651,21.413C0.613,21.415 0.592,21.437 0.592,21.484L0.592,21.882C0.594,21.959 0.552,21.984 0.487,21.984L0.092,21.984ZM28.385,14.961L16.615,14.961C18.043,15.418 19.164,16.179 19.662,17.445C19.68,17.404 19.659,17.21 19.722,17.065C19.751,16.998 19.797,16.94 19.841,16.882C19.876,16.835 19.914,16.79 19.954,16.747C20.241,16.437 20.631,16.24 21.031,16.115C21.099,16.093 21.168,16.074 21.238,16.056C21.327,16.034 21.417,16.014 21.507,15.997C21.63,15.974 21.754,15.956 21.879,15.942C22.033,15.924 22.188,15.914 22.343,15.91C22.385,15.909 22.427,15.909 22.469,15.909L22.531,15.909C22.573,15.909 22.615,15.909 22.657,15.91C22.812,15.914 22.967,15.924 23.121,15.942C23.246,15.956 23.37,15.974 23.493,15.997C23.583,16.014 23.673,16.034 23.762,16.056C23.832,16.074 23.901,16.093 23.969,16.115C24.369,16.24 24.759,16.437 25.046,16.747C25.086,16.79 25.124,16.835 25.159,16.882C25.203,16.94 25.248,16.998 25.278,17.065C25.33,17.182 25.32,17.404 25.338,17.445C25.836,16.179 26.957,15.418 28.385,14.961Z" style="fill:#333;"/>
</svg>
