<?xml version="1.0" standalone="no"?>
<!-- Generator: Adobe Fireworks 10, Export SVG Extension by Aaron Beall (http://fireworks.abeall.com) . Version: 0.6.1  -->
<!DOCTYPE svg PUBLIC "-//W3C//DTD SVG 1.1//EN" "http://www.w3.org/Graphics/SVG/1.1/DTD/svg11.dtd">
<svg id="Untitled-Page%201" viewBox="0 0 45 45" style="background-color:#ffffff00" version="1.1"
	xmlns="http://www.w3.org/2000/svg" xmlns:xlink="http://www.w3.org/1999/xlink" xml:space="preserve"
	x="0px" y="0px" width="45px" height="45px"
>
	<g id="Layer%201">
		<path id="vor" d="M 12.1355 6 L 3.122 22.4063 L 12.1355 39 L 33.1671 39 L 42.1807 22.4063 L 33.1671 6 L 12.1355 6 ZM 13.7317 9 L 31.7588 9 L 39.1762 22.4063 L 32.3221 36 L 13.7317 36 L 6.1265 22.4063 L 13.7317 9 ZM 22.5943 19.9737 C 21.2159 19.9737 20.0961 21.1048 20.0961 22.5 C 20.0961 23.8939 21.2159 25.0263 22.5943 25.0263 C 23.9739 25.0263 25.0925 23.8939 25.0925 22.5 C 25.0925 21.1048 23.9739 19.9737 22.5943 19.9737 L 22.5943 19.9737 ZM 22.5943 19.9737 L 22.5943 19.9737 Z" fill="#333333"/>
	</g>
</svg>