<?xml version="1.0" encoding="UTF-8" standalone="no"?>
<!DOCTYPE svg PUBLIC "-//W3C//DTD SVG 1.1//EN" "http://www.w3.org/Graphics/SVG/1.1/DTD/svg11.dtd">
<svg width="45px" height="45px" viewBox="0 0 45 45" version="1.1" xmlns="http://www.w3.org/2000/svg" xmlns:xlink="http://www.w3.org/1999/xlink" xml:space="preserve" style="fill-rule:evenodd;clip-rule:evenodd;stroke-linejoin:round;stroke-miterlimit:1.41421;">
    <path id="vordme" d="M42.248,39.02L3.19,39.02L3.19,6L12.951,6L12.962,5.98L32.038,5.98L32.049,6L42.248,6L42.248,39.02ZM6.153,36.011L11.225,36.011L6.153,27.225L6.153,36.011ZM30.446,9.009L14.554,9.009L6.765,22.5L14.565,36.011L30.435,36.011L38.235,22.5L30.446,9.009ZM39.285,26.466L33.775,36.011L39.285,36.011L39.285,26.466ZM22.594,19.974C21.216,19.974 20.096,21.105 20.096,22.5C20.096,23.894 21.216,25.026 22.594,25.026C23.974,25.026 25.093,23.894 25.093,22.5C25.093,21.105 23.974,19.974 22.594,19.974ZM33.786,9.009L39.285,18.534L39.285,9.009L33.786,9.009ZM6.153,9.009L6.153,17.775L11.214,9.009L6.153,9.009Z" style="fill:#333;"/>
</svg>
