<?xml version="1.0" standalone="no"?>
<!-- Generator: Adobe Fireworks 10, Export SVG Extension by Aaron Beall (http://fireworks.abeall.com) . Version: 0.6.1  -->
<!DOCTYPE svg PUBLIC "-//W3C//DTD SVG 1.1//EN" "http://www.w3.org/Graphics/SVG/1.1/DTD/svg11.dtd">
<svg id="Untitled-Page%201" viewBox="0 0 45 45" style="background-color:#ffffff00" version="1.1"
	xmlns="http://www.w3.org/2000/svg" xmlns:xlink="http://www.w3.org/1999/xlink" xml:space="preserve"
	x="0px" y="0px" width="45px" height="45px"
>
	<g id="Layer%201">
		<path id="vordme" d="M 39.2439 18.3 L 32.4236 9 L 39.2439 9 L 39.2439 18.3 ZM 32.4086 36 L 39.2439 26.55 L 39.2439 36 L 32.4086 36 ZM 15.2078 39 L 30.2304 39 L 42.2484 39 L 42.2484 22.4063 L 42.2484 6 L 30.2304 6 L 15.2078 6 L 3.1897 6 L 3.1897 22.4063 L 3.1897 39 L 15.2078 39 ZM 6.1942 26.55 L 13.0295 36 L 6.1942 36 L 6.1942 26.55 ZM 13.0145 9 L 6.1942 18.3 L 6.1942 9 L 13.0145 9 ZM 16.2875 9 L 28.822 9 L 39.2439 22.4063 L 29.3853 36 L 16.2875 36 L 6.1942 22.4063 L 16.2875 9 ZM 22.6621 19.9737 C 21.2837 19.9737 20.1639 21.1048 20.1639 22.5 C 20.1639 23.8939 21.2837 25.0263 22.6621 25.0263 C 24.0417 25.0263 25.1602 23.8939 25.1602 22.5 C 25.1602 21.1048 24.0417 19.9737 22.6621 19.9737 Z" fill="#333333"/>
	</g>
</svg>