<?xml version="1.0" encoding="UTF-8" standalone="no"?><!DOCTYPE svg PUBLIC "-//W3C//DTD SVG 1.1//EN" "http://www.w3.org/Graphics/SVG/1.1/DTD/svg11.dtd"><svg width="45px" height="45px" viewBox="0 0 45 45" version="1.1" xmlns="http://www.w3.org/2000/svg" xmlns:xlink="http://www.w3.org/1999/xlink" xml:space="preserve" style="fill-rule:evenodd;clip-rule:evenodd;stroke-linejoin:round;stroke-miterlimit:1.41421;"><path id="windsock" d="M31.316,9.169c0.634,0.387 2.983,1.999 2.983,1.999c0.207,0.595 -0.013,3.049 -0.862,3.46c0,0 -2.545,-0.137 -3.35,-0.354c0.697,-1.468 1.191,-3.586 1.229,-5.105Zm-1.627,-1.066c0.59,0.478 -0.046,5.275 -1.01,4.879c-0.362,-0.149 -0.692,-0.518 -1.107,-0.523c-0.446,-0.004 -1.425,0.039 -2.208,0.52c1.153,-1.75 2.187,-4.205 1.801,-5.643c0.857,-0.337 1.159,-0.336 2.524,0.767Zm-6.859,-3.423c0.562,0.255 2.552,1.504 2.552,1.504c0.112,2.27 -0.496,4.593 -1.855,6.672c-0.787,-0.073 -1.639,-0.295 -2.564,-0.686c1.182,-1.764 2.02,-4.993 1.867,-7.49Zm-4.895,-2.755l2.739,1.551c-0.057,2.259 -1.11,6.075 -2.061,7.81l-2.675,-1.032c0.978,-2.279 1.822,-5.878 1.997,-8.329Zm-4.252,5.977l-4.922,-4.433l6.111,-1.844c-0.744,1.098 -1.058,2.295 -1.15,2.968c-0.051,0.377 -0.143,2.604 -0.039,3.309Zm0.788,1.448c0,0 -0.196,-3.478 0.021,-4.69c0.216,-1.212 1.525,-3.512 1.525,-3.512c-0.032,1.163 -0.032,3.263 -0.345,4.575c-0.228,0.957 -0.817,2.759 -1.201,3.627Zm-7.408,-7.103l0,42.753l1.698,0l0,-40.31l4.804,4.585l-0.079,1.151c3.783,1.107 7.921,3.233 11.823,3.392c0.752,-0.094 1.691,-0.659 2.144,-0.534c0.564,-0.047 1.441,1.372 2.364,1.601c1.134,0.28 3.762,0.325 4.44,0.084c1.112,-0.395 1.354,-2.837 1.192,-3.495c-0.125,-0.505 -0.122,-0.436 -0.993,-0.998c-2.013,-1.301 -4.465,-3.199 -6.31,-4.193c-0.696,-0.375 -1.221,0.256 -1.893,-0.17c-3.041,-1.928 -9.891,-6.113 -9.891,-6.113l-7.601,2.247c-0.592,-0.95 -1.163,-1.149 -1.698,0Z" style="fill:#333;fill-rule:nonzero;"/></svg>