<?xml version="1.0" standalone="no"?>
<!-- Generator: Adobe Fireworks 10, Export SVG Extension by Aaron Beall (http://fireworks.abeall.com) . Version: 0.6.1  -->
<!DOCTYPE svg PUBLIC "-//W3C//DTD SVG 1.1//EN" "http://www.w3.org/Graphics/SVG/1.1/DTD/svg11.dtd">
<svg id="Untitled-Page%201" viewBox="0 0 45 45" style="background-color:#ffffff00" version="1.1"
	xmlns="http://www.w3.org/2000/svg" xmlns:xlink="http://www.w3.org/1999/xlink" xml:space="preserve"
	x="0px" y="0px" width="45px" height="45px"
>
	<path id="windsock" d="M 32.2579 9.7195 L 34.7135 11.6096 L 34.0642 14.3314 L 31.1882 14.2026 L 32.2579 9.7195 ZM 29.8011 8.8776 L 29.0909 11.8539 L 28.8743 12.965 L 27.4752 12.4089 C 27.1606 12.361 26.477 13.2018 26.2052 12.7734 L 26.2435 12.4802 L 26.5643 10.4615 C 27.0589 7.5316 27.8371 7.54 29.8011 8.8776 ZM 22.8297 4.6803 C 26.0024 6.1175 24.825 8.4793 23.829 11.6306 L 21.301 11.0864 L 22.8297 4.6803 ZM 18.0234 2.547 L 20.3363 3.9914 L 18.8968 10.0244 L 16.3285 9.6502 L 18.0234 2.547 ZM 13.6826 7.9017 L 8.7611 3.4687 L 14.8718 1.6245 C 14.1284 2.7225 13.7428 4.1688 13.6513 4.8416 C 13.5999 5.2192 13.5786 7.1969 13.6826 7.9017 ZM 14.5595 8.2658 C 14.5595 8.2658 14.5768 6.3519 14.7936 5.1398 C 15.0104 3.9276 16.0167 1.3257 16.0167 1.3257 C 15.9853 2.4882 15.8789 4.1085 15.5659 5.4207 C 15.3373 6.3784 14.9438 7.3986 14.5595 8.2658 ZM 7.0632 2.2472 L 7.0632 45 L 8.7611 45 L 8.7611 4.6902 L 13.2275 9.3103 C 13.3729 9.9689 13.4857 10.4257 13.4857 10.4257 C 17.2686 11.5329 21.4074 13.659 25.3094 13.818 C 26.0606 13.7238 26.9995 13.1589 27.4533 13.2844 C 28.0166 13.2374 28.846 14.7439 29.8174 14.8847 C 31.6728 15.7971 34.0234 15.2389 35.9287 15.6838 L 36.474 14.3969 L 36.6271 11.9986 L 36.881 10.6581 L 37.1084 9.9699 C 36.4564 9.9785 36.6069 11.6034 34.4558 10.4755 C 32.334 9.363 30.5099 7.5074 28.3646 6.4675 C 27.6538 6.1228 26.9251 6.5387 26.2528 6.1125 C 23.2123 4.1848 16.3622 0 16.3622 0 L 8.7611 2.2472 L 7.0632 2.2472 Z" fill="#333333"/>
</svg>