<?xml version="1.0" encoding="UTF-8" standalone="no"?><!DOCTYPE svg PUBLIC "-//W3C//DTD SVG 1.1//EN" "http://www.w3.org/Graphics/SVG/1.1/DTD/svg11.dtd"><svg width="45px" height="45px" viewBox="0 0 45 45" version="1.1" xmlns="http://www.w3.org/2000/svg" xmlns:xlink="http://www.w3.org/1999/xlink" xml:space="preserve" style="fill-rule:evenodd;clip-rule:evenodd;stroke-linejoin:round;stroke-miterlimit:1.41421;"><path d="M25.026,33.993l-5.052,0c-1.321,0 -2.394,-1.072 -2.394,-2.394l0,-2.418c-3.638,0.743 -11.628,2.552 -11.628,2.552c-3.389,0.349 -5.694,-0.432 -5.952,-3.344l0.72,-13.069c0.014,-0.488 0.643,-1.702 1.956,-3.722c0.506,-0.767 1.234,-0.729 2.092,-0.223l3.911,2.401c0.42,0.544 0.431,1.131 -0.035,1.766c-0.626,0.668 -1.484,1.356 -2.504,2.059c-0.241,0.157 -0.603,0.283 -1.149,0.36l-1.596,0.093l-0.588,8.702c-0.163,1.241 0.755,1.82 2.763,1.112l1.329,-0.47c0.466,-0.839 1.36,-1.406 2.386,-1.406c0.362,0 0.707,0.07 1.023,0.199l4.475,-1.585c1.225,-0.671 1.945,-1.733 2.352,-3.542c0.335,-1.805 0.907,-3.663 1.932,-4.629c0.873,-0.824 2.223,-0.881 3.433,-0.932l0.228,0.009c1.149,0.052 2.387,0.15 3.205,0.923c1.025,0.966 1.596,2.824 1.932,4.629c0.407,1.809 1.127,2.871 2.352,3.542l9.213,3.262c2.008,0.708 2.926,0.129 2.764,-1.112l-0.589,-8.702l-1.596,-0.093c-0.546,-0.077 -0.908,-0.203 -1.149,-0.36c-1.02,-0.703 -1.878,-1.391 -2.504,-2.059c-0.466,-0.635 -0.455,-1.222 -0.035,-1.766l3.911,-2.401c0.858,-0.506 1.586,-0.544 2.092,0.223c1.313,2.02 1.942,3.234 1.956,3.722l0.72,13.069c-0.258,2.912 -2.563,3.693 -5.952,3.344c0,0 -7.99,-1.809 -11.628,-2.552l0,2.418c0,1.322 -1.073,2.394 -2.394,2.394Zm-15.741,-6.406c0.625,0 1.132,0.507 1.132,1.132c0,0.625 -0.507,1.132 -1.132,1.132c-0.625,0 -1.132,-0.507 -1.132,-1.132c0,-0.625 0.507,-1.132 1.132,-1.132Zm-3.553,-12.696c0.481,0 0.872,0.391 0.872,0.872c0,0.481 -0.391,0.871 -0.872,0.871c-0.481,0 -0.872,-0.39 -0.872,-0.871c0,-0.481 0.391,-0.872 0.872,-0.872Zm33.311,0c0.481,0 0.871,0.391 0.871,0.872c0,0.481 -0.39,0.871 -0.871,0.871c-0.481,0 -0.872,-0.39 -0.872,-0.871c0,-0.481 0.391,-0.872 0.872,-0.872Zm-33.311,0.406c0.257,0 0.465,0.209 0.465,0.466c0,0.257 -0.208,0.465 -0.465,0.465c-0.257,0 -0.466,-0.208 -0.466,-0.465c0,-0.257 0.209,-0.466 0.466,-0.466Zm33.311,0c0.257,0 0.465,0.209 0.465,0.466c0,0.257 -0.208,0.465 -0.465,0.465c-0.257,0 -0.466,-0.208 -0.466,-0.465c0,-0.257 0.209,-0.466 0.466,-0.466Zm2.021,-3.072l-1.172,0.474l1.014,2.504l1.172,-0.474l-1.014,-2.504Zm-37.128,0l1.172,0.474l-1.014,2.504l-1.172,-0.474l1.014,-2.504Z" style="fill:#333;"/></svg>